<svg width="21" height="22" viewBox="0 0 21 22" fill="none" xmlns="http://www.w3.org/2000/svg">
<g id="Frame" clip-path="url(#clip0_3148_509)">
<g id="Group">
<path id="Vector" d="M18.4954 21.7187C18.329 21.5979 18.2811 21.4338 18.2874 21.2264C18.3 20.8325 18.2912 20.436 18.2912 20.0185C18.0252 20.0185 17.7755 20.0185 17.5259 20.0185C17.043 20.0185 16.5601 20.0198 16.0773 20.0185C15.0711 20.0146 14.3752 19.2873 14.3714 18.2396C14.3714 18.1621 14.3714 18.086 14.3714 17.9783C14.2617 17.9783 14.1621 17.981 14.0638 17.9783C13.6691 17.9691 13.3981 17.6895 13.393 17.2799C13.388 16.9608 13.3905 16.6431 13.393 16.3241C13.3968 15.879 13.6666 15.602 14.0991 15.5981C14.1785 15.5968 14.2579 15.5981 14.3701 15.5981C14.0196 15.0546 13.9541 14.5018 14.1836 13.9045C13.7208 13.9019 13.325 13.7679 12.9871 13.4607C12.6542 13.1561 12.5117 12.7478 12.4159 12.2923C11.9608 12.4131 11.5233 12.5312 11.0845 12.6468C9.18326 13.1522 7.28073 13.6524 5.38198 14.1684C4.95962 14.2839 4.60281 14.1802 4.26744 13.9334C3.76187 13.5605 3.41263 13.0432 3.1113 12.4945C2.29053 11.0017 1.82908 9.38164 1.59331 7.68804C1.54414 7.33881 1.53531 6.98303 1.49245 6.63249C1.48362 6.55897 1.42689 6.45656 1.36763 6.43031C0.709498 6.1441 0.306046 5.64127 0.140882 4.92182C0.101798 4.75114 0.0463231 4.58572 -0.00158691 4.41768C-0.00158691 4.33234 -0.00158691 4.247 -0.00158691 4.16298C0.100537 4.08946 0.193835 3.98049 0.307306 3.95029C1.78495 3.54593 3.26638 3.15338 4.74654 2.75689C5.24456 2.62298 5.74131 2.48775 6.25193 2.3499C6.17376 2.02956 6.10063 1.72891 6.02877 1.42827C5.96447 1.15519 6.04516 1.00421 6.3011 0.934627C7.09665 0.719316 7.89221 0.506631 8.68903 0.296571C8.98658 0.217799 9.11518 0.301823 9.19587 0.612973C9.27026 0.904431 9.34338 1.19589 9.42029 1.49522C9.48711 1.48078 9.53376 1.47422 9.57789 1.4624C11.1766 1.0344 12.7765 0.61166 14.3727 0.1771C16.5967 -0.428134 18.8523 0.544704 19.9706 2.59016C20.3261 3.24003 20.4774 3.95948 20.6552 4.66975C20.7485 5.04391 20.6754 5.16601 20.3122 5.26316C20.045 5.33406 19.7789 5.40758 19.5053 5.4811C19.644 6.04301 19.7789 6.57604 19.9075 7.11037C20.3059 8.76722 19.3982 10.3847 17.8159 10.8416C17.7062 10.8731 17.5978 10.9072 17.4793 10.9426C17.7806 11.9273 17.5436 12.6993 16.6786 13.2349C17.0178 13.5277 17.2309 13.8874 17.2952 14.3338C17.3607 14.7867 17.241 15.1977 16.9951 15.5955C17.0783 15.5955 17.1325 15.5955 17.1855 15.5955C17.7289 15.5981 17.9647 15.8462 17.9659 16.4147C17.9659 16.7022 17.9659 16.991 17.9659 17.2956C18.1513 17.2956 18.3126 17.2956 18.4753 17.2956C18.851 17.2956 18.9455 17.1972 18.9468 16.8072C18.9468 15.2988 18.9468 13.7903 18.9468 12.2818C18.9468 11.9746 19.0603 11.8564 19.3528 11.8551C19.7134 11.8538 20.074 11.8538 20.4345 11.8551C20.8115 11.8551 20.9061 11.9536 20.9061 12.3422C20.9061 15.3027 20.9048 18.2632 20.9099 21.2237C20.9099 21.4312 20.867 21.5953 20.7018 21.7161C19.9655 21.7187 19.2305 21.7187 18.4954 21.7187ZM0.737235 4.52927C0.901138 5.58613 1.59205 6.05745 2.54899 5.80013C4.67972 5.22772 6.81172 4.65662 8.94245 4.08814C10.0734 3.78618 11.0669 4.35597 11.4149 5.49948C11.6708 6.34103 12.3037 6.70338 13.1295 6.48151C13.8204 6.29639 14.5114 6.11259 15.201 5.92616C15.3662 5.88153 15.5137 5.89203 15.6196 6.04957C15.7621 6.26226 15.6461 6.50777 15.3624 6.58523C14.6324 6.78347 13.9062 6.99353 13.1699 7.1642C12.9038 7.22591 12.6088 7.24297 12.3428 7.19177C11.5422 7.03817 11.0278 6.52615 10.7945 5.71348C10.6306 5.14369 10.2776 4.76559 9.70901 4.70782C9.37742 4.67369 9.03197 4.77609 8.66003 4.81941C8.77855 5.11481 8.87941 5.34456 8.96388 5.58088C9.73549 7.76025 10.2032 9.97375 9.67749 12.3093C9.72162 12.3002 9.78088 12.291 9.83761 12.2752C11.3443 11.8722 12.8509 11.4691 14.3563 11.0647C15.4809 10.7628 16.6106 10.4818 17.7276 10.151C18.822 9.82802 19.494 8.70683 19.315 7.54231C19.2431 7.07624 19.1044 6.62067 18.996 6.16117C18.9556 5.99181 18.9128 5.82376 18.8699 5.64915C18.7653 5.67672 18.6884 5.69904 18.6089 5.71742C18.4085 5.76337 18.2433 5.67015 18.1903 5.48241C18.1374 5.29992 18.237 5.12269 18.4362 5.06098C18.6051 5.00847 18.7779 4.96908 18.9493 4.92313C19.2872 4.83254 19.6264 4.74064 19.9718 4.64611C19.9214 4.43474 19.8785 4.24963 19.8331 4.06451C19.2091 1.58319 16.9472 0.194167 14.5593 0.83091C10.7555 1.8497 6.95419 2.86717 3.15165 3.88334C2.34978 4.09733 1.54792 4.31264 0.737235 4.52927ZM6.17754 13.2546C6.92393 13.0551 7.64258 12.8411 8.37131 12.6756C8.73946 12.5916 8.94119 12.3802 9.04836 12.0297C9.08492 11.9089 9.12148 11.7868 9.1467 11.6621C9.31186 10.8481 9.28286 10.0289 9.18326 9.21097C9.01305 7.81276 8.66003 6.46838 8.09394 5.18439C8.03846 5.05704 7.97921 5.04523 7.85943 5.07805C7.22273 5.25529 6.58477 5.42202 5.94682 5.59269C5.70096 5.65834 5.45511 5.7253 5.20043 5.79356C5.21934 5.85133 5.2269 5.88547 5.24077 5.91697C5.67449 6.90557 5.98716 7.93486 6.18384 9.00091C6.44357 10.4083 6.58099 11.817 6.17754 13.2546ZM20.2366 19.3385C20.2366 17.0567 20.2366 14.8025 20.2366 12.547C20.021 12.547 19.8193 12.547 19.5974 12.547C19.5974 12.6323 19.5974 12.7085 19.5974 12.7846C19.5974 14.1434 19.5986 15.5036 19.5974 16.8624C19.5974 17.5556 19.1952 17.9757 18.5333 17.977C17.4389 17.9783 16.3433 17.977 15.2489 17.977C15.1771 17.977 15.1052 17.977 15.0384 17.977C14.9199 18.9026 15.491 19.3752 16.2084 19.3463C17.1931 19.3083 18.1803 19.3371 19.1662 19.3371C19.5192 19.3385 19.8722 19.3385 20.2366 19.3385ZM3.91316 6.14148C3.92955 6.18874 3.93712 6.22156 3.95099 6.25176C4.57256 7.6132 4.95205 9.04555 5.08191 10.5448C5.12352 11.0293 5.0983 11.5203 5.09578 12.0087C5.09452 12.1781 5.01888 12.3146 4.85245 12.3605C4.69863 12.4039 4.57129 12.3448 4.48178 12.2069C4.42883 12.1255 4.37335 12.0441 4.32544 11.9588C3.4971 10.512 3.0697 8.9287 2.85788 7.27317C2.82384 7.00403 2.80745 6.73095 2.78097 6.44869C2.65742 6.47626 2.55908 6.49858 2.45947 6.51827C2.36113 6.53796 2.26279 6.55372 2.16571 6.5721C2.16571 6.68632 2.15814 6.7861 2.16697 6.88325C2.32457 8.68451 2.76458 10.4031 3.59418 12.0008C3.85138 12.4945 4.15019 12.9592 4.57256 13.3203C4.9987 13.6839 5.33281 13.6104 5.5131 13.0708C5.63666 12.7019 5.71357 12.3054 5.74761 11.9155C5.8283 10.9925 5.72366 10.0788 5.54967 9.1729C5.3492 8.12129 5.04913 7.10381 4.61542 6.12966C4.5776 6.04432 4.55112 5.95636 4.42883 5.99443C4.26366 6.04695 4.09346 6.09027 3.91316 6.14148ZM13.0627 12.1164C13.1585 12.9842 13.7788 13.3846 14.5214 13.1365C15.0371 12.9645 15.5704 12.8476 16.0962 12.7085C16.8489 12.5089 17.1401 11.8879 16.8236 11.112C15.5755 11.4455 14.3222 11.7803 13.0627 12.1164ZM17.3027 16.2926C16.2109 16.2926 15.1342 16.2926 14.0625 16.2926C14.0625 16.6353 14.0625 16.9635 14.0625 17.2983C14.616 17.2983 15.1518 17.2983 15.6889 17.2983C16.2235 17.2983 16.7593 17.2983 17.3027 17.2983C17.3027 16.953 17.3027 16.63 17.3027 16.2926ZM15.6751 15.5968C16.2197 15.5968 16.661 15.136 16.6585 14.5701C16.6547 14.0135 16.2172 13.5592 15.6826 13.5579C15.1392 13.5566 14.6954 14.02 14.6992 14.5832C14.703 15.1399 15.143 15.5968 15.6751 15.5968ZM6.88862 2.18185C7.53163 2.00987 8.15194 1.84313 8.78611 1.67377C8.72686 1.4414 8.67516 1.23396 8.61969 1.01602C7.97416 1.18932 7.35386 1.35606 6.72598 1.52542C6.78272 1.75386 6.83189 1.95079 6.88862 2.18185ZM20.2429 20.033C19.8029 20.033 19.3793 20.033 18.9619 20.033C18.9619 20.3756 18.9619 20.7038 18.9619 21.0268C19.3969 21.0268 19.8155 21.0268 20.2429 21.0268C20.2429 20.6933 20.2429 20.3704 20.2429 20.033ZM3.4908 6.82417C3.4681 7.69592 4.0985 10.1996 4.44648 10.6591C4.31283 9.33963 4.01529 8.0819 3.4908 6.82417Z" fill="#213CE7"/>
<path id="Vector_2" d="M17.2489 5.37891C17.4771 5.38284 17.5918 5.47475 17.6284 5.64542C17.6662 5.82003 17.5931 5.96707 17.4355 6.02221C17.1909 6.10624 16.9387 6.17188 16.6853 6.22046C16.5176 6.25197 16.3941 6.14825 16.3474 5.9802C16.2995 5.80953 16.36 5.65198 16.5176 5.5929C16.771 5.49706 17.0383 5.43799 17.2489 5.37891Z" fill="#213CE7"/>
<path id="Vector_3" d="M16.004 14.5681C16.009 14.7521 15.8651 14.9112 15.6884 14.9177C15.5117 14.923 15.3589 14.7731 15.3539 14.5891C15.3488 14.4038 15.4915 14.246 15.6695 14.2408C15.8462 14.2329 15.9989 14.3827 16.004 14.5681Z" fill="#213CE7"/>
</g>
</g>
<defs>
<clipPath id="clip0_3148_509">
<rect width="20.9089" height="21.7188" fill="white"/>
</clipPath>
</defs>
</svg>
