<svg width="21" height="22" viewBox="0 0 21 22" fill="none" xmlns="http://www.w3.org/2000/svg">
<g id="Frame" clip-path="url(#clip0_3204_12112)">
<g id="Group">
<path id="Vector" d="M18.497 21.7194C18.3306 21.5986 18.2827 21.4345 18.289 21.2271C18.3016 20.8332 18.2928 20.4368 18.2928 20.0193C18.0268 20.0193 17.7771 20.0193 17.5275 20.0193C17.0446 20.0193 16.5617 20.0206 16.0788 20.0193C15.0727 20.0153 14.3768 19.288 14.373 18.2403C14.373 18.1629 14.373 18.0867 14.373 17.9791C14.2633 17.9791 14.1637 17.9817 14.0654 17.9791C13.6707 17.9699 13.3997 17.6902 13.3946 17.2806C13.3896 16.9616 13.3921 16.6439 13.3946 16.3248C13.3984 15.8798 13.6682 15.6028 14.1007 15.5988C14.1801 15.5975 14.2595 15.5988 14.3717 15.5988C14.0212 15.0553 13.9557 14.5026 14.1851 13.9052C13.7224 13.9026 13.3265 13.7687 12.9886 13.4615C12.6558 13.1569 12.5133 12.7486 12.4175 12.293C11.9624 12.4138 11.5249 12.532 11.0861 12.6475C9.18485 13.1529 7.28232 13.6531 5.38357 14.1691C4.9612 14.2846 4.6044 14.1809 4.26903 13.9341C3.76345 13.5612 3.41422 13.044 3.11289 12.4952C2.29211 11.0025 1.83067 9.38237 1.5949 7.68877C1.54573 7.33955 1.5369 6.98376 1.49404 6.63322C1.48521 6.5597 1.42847 6.4573 1.36922 6.43104C0.711085 6.14483 0.307633 5.642 0.142469 4.92255C0.103385 4.75188 0.04791 4.58645 0 4.41841C0 4.33307 0 4.24773 0 4.16371C0.102124 4.09019 0.195422 3.98122 0.308893 3.95103C1.78654 3.54666 3.26797 3.15411 4.74813 2.75763C5.24614 2.62371 5.74289 2.48849 6.25351 2.35063C6.17534 2.03029 6.10222 1.72965 6.03035 1.429C5.96605 1.15592 6.04674 1.00494 6.30268 0.935359C7.09824 0.720048 7.8938 0.507363 8.69062 0.297304C8.98816 0.218531 9.11677 0.302555 9.19746 0.613706C9.27184 0.905163 9.34497 1.19662 9.42188 1.49596C9.4887 1.48151 9.53535 1.47495 9.57948 1.46313C11.1782 1.03514 12.7781 0.612393 14.3743 0.177832C16.5983 -0.427402 18.8538 0.545436 19.9722 2.59089C20.3277 3.24076 20.479 3.96022 20.6568 4.67048C20.7501 5.04465 20.6769 5.16674 20.3138 5.2639C20.0465 5.33479 19.7805 5.40831 19.5069 5.48183C19.6456 6.04374 19.7805 6.57677 19.9091 7.11111C20.3075 8.76795 19.3998 10.3854 17.8175 10.8423C17.7078 10.8738 17.5994 10.9079 17.4808 10.9434C17.7822 11.928 17.5451 12.7 16.6802 13.2357C17.0194 13.5284 17.2325 13.8882 17.2968 14.3345C17.3623 14.7875 17.2425 15.1984 16.9967 15.5962C17.0799 15.5962 17.1341 15.5962 17.1871 15.5962C17.7305 15.5988 17.9662 15.847 17.9675 16.4154C17.9675 16.7029 17.9675 16.9918 17.9675 17.2964C18.1528 17.2964 18.3142 17.2964 18.4769 17.2964C18.8526 17.2964 18.9471 17.1979 18.9484 16.808C18.9484 15.2995 18.9484 13.791 18.9484 12.2825C18.9484 11.9753 19.0619 11.8571 19.3544 11.8558C19.715 11.8545 20.0755 11.8545 20.4361 11.8558C20.8131 11.8558 20.9077 11.9543 20.9077 12.3429C20.9077 15.3034 20.9064 18.264 20.9114 21.2245C20.9114 21.4319 20.8686 21.596 20.7034 21.7168C19.9671 21.7194 19.2321 21.7194 18.497 21.7194ZM0.738822 4.53C0.902725 5.58686 1.59364 6.05818 2.55058 5.80086C4.68131 5.22845 6.8133 4.65735 8.94404 4.08888C10.075 3.78692 11.0685 4.3567 11.4164 5.50021C11.6724 6.34176 12.3053 6.70412 13.1311 6.48224C13.822 6.29713 14.5129 6.11332 15.2026 5.9269C15.3678 5.88226 15.5153 5.89276 15.6212 6.05031C15.7636 6.26299 15.6477 6.5085 15.364 6.58596C14.634 6.7842 13.9078 6.99426 13.1715 7.16493C12.9054 7.22664 12.6104 7.24371 12.3444 7.1925C11.5438 7.0389 11.0294 6.52688 10.7961 5.71421C10.6322 5.14443 10.2792 4.76632 9.7106 4.70855C9.37901 4.67442 9.03355 4.77682 8.66162 4.82015C8.78014 5.11554 8.881 5.34529 8.96547 5.58161C9.73707 7.76098 10.2048 9.97448 9.67908 12.3101C9.72321 12.3009 9.78246 12.2917 9.8392 12.2759C11.3458 11.8729 12.8525 11.4698 14.3579 11.0655C15.4825 10.7635 16.6122 10.4826 17.7292 10.1517C18.8236 9.82875 19.4956 8.70756 19.3165 7.54304C19.2447 7.07697 19.106 6.62141 18.9976 6.1619C18.9572 5.99254 18.9144 5.82449 18.8715 5.64988C18.7668 5.67745 18.6899 5.69977 18.6105 5.71815C18.41 5.7641 18.2449 5.67089 18.1919 5.48315C18.139 5.30066 18.2386 5.12342 18.4378 5.06171C18.6067 5.0092 18.7795 4.96981 18.9509 4.92386C19.2888 4.83327 19.628 4.74137 19.9734 4.64685C19.923 4.43547 19.8801 4.25036 19.8347 4.06525C19.2106 1.58392 16.9488 0.1949 14.5609 0.831642C10.7571 1.85043 6.95577 2.86791 3.15323 3.88407C2.35137 4.09807 1.54951 4.31338 0.738822 4.53ZM6.17913 13.2553C6.92551 13.0558 7.64416 12.8418 8.3729 12.6764C8.74105 12.5923 8.94278 12.381 9.04994 12.0304C9.08651 11.9097 9.12307 11.7876 9.14829 11.6628C9.31345 10.8489 9.28445 10.0296 9.18485 9.2117C9.01464 7.81349 8.66162 6.46911 8.09553 5.18512C8.04005 5.05778 7.98079 5.04596 7.86102 5.07878C7.22432 5.25602 6.58636 5.42275 5.9484 5.59343C5.70255 5.65907 5.45669 5.72603 5.20202 5.7943C5.22093 5.85206 5.22849 5.8862 5.24236 5.91771C5.67607 6.9063 5.98875 7.93559 6.18543 9.00164C6.44515 10.409 6.58258 11.8178 6.17913 13.2553ZM20.2382 19.3392C20.2382 17.0574 20.2382 14.8032 20.2382 12.5477C20.0226 12.5477 19.8209 12.5477 19.599 12.5477C19.599 12.633 19.599 12.7092 19.599 12.7853C19.599 14.1442 19.6002 15.5043 19.599 16.8631C19.599 17.5563 19.1968 17.9764 18.5349 17.9777C17.4405 17.9791 16.3449 17.9777 15.2505 17.9777C15.1786 17.9777 15.1068 17.9777 15.04 17.9777C14.9214 18.9033 15.4926 19.376 16.21 19.3471C17.1946 19.309 18.1818 19.3379 19.1678 19.3379C19.5208 19.3392 19.8738 19.3392 20.2382 19.3392ZM3.91475 6.14221C3.93114 6.18947 3.9387 6.22229 3.95257 6.25249C4.57414 7.61394 4.95364 9.04628 5.0835 10.5456C5.12511 11.03 5.09989 11.521 5.09737 12.0094C5.09611 12.1788 5.02046 12.3153 4.85404 12.3613C4.70022 12.4046 4.57288 12.3455 4.48337 12.2077C4.43041 12.1263 4.37494 12.0449 4.32703 11.9595C3.49869 10.5128 3.07128 8.92943 2.85947 7.2739C2.82543 7.00476 2.80904 6.73169 2.78256 6.44942C2.659 6.47699 2.56066 6.49931 2.46106 6.519C2.36272 6.5387 2.26438 6.55445 2.1673 6.57283C2.1673 6.68705 2.15973 6.78683 2.16856 6.88398C2.32616 8.68524 2.76617 10.4038 3.59577 12.0016C3.85297 12.4952 4.15178 12.96 4.57414 13.321C5.00029 13.6847 5.3344 13.6111 5.51469 13.0715C5.63825 12.7026 5.71516 12.3061 5.7492 11.9162C5.82989 10.9933 5.72524 10.0795 5.55125 9.17363C5.35079 8.12202 5.05072 7.10454 4.61701 6.13039C4.57919 6.04505 4.55271 5.95709 4.43041 5.99517C4.26525 6.04768 4.09504 6.09101 3.91475 6.14221ZM13.0643 12.1171C13.1601 12.9849 13.7804 13.3853 14.523 13.1372C15.0387 12.9652 15.572 12.8484 16.0978 12.7092C16.8504 12.5096 17.1417 11.8886 16.8252 11.1127C15.577 11.4462 14.3238 11.781 13.0643 12.1171ZM17.3043 16.2933C16.2125 16.2933 15.1358 16.2933 14.0641 16.2933C14.0641 16.636 14.0641 16.9642 14.0641 17.299C14.6176 17.299 15.1534 17.299 15.6905 17.299C16.2251 17.299 16.7609 17.299 17.3043 17.299C17.3043 16.9537 17.3043 16.6307 17.3043 16.2933ZM15.6767 15.5975C16.2213 15.5975 16.6626 15.1367 16.6601 14.5708C16.6563 14.0142 16.2188 13.5599 15.6842 13.5586C15.1408 13.5573 14.697 14.0208 14.7008 14.584C14.7046 15.1406 15.1446 15.5975 15.6767 15.5975ZM6.89021 2.18259C7.53321 2.0106 8.15352 1.84387 8.7877 1.67451C8.72844 1.44213 8.67675 1.23469 8.62128 1.01676C7.97575 1.19006 7.35544 1.35679 6.72757 1.52615C6.78431 1.75459 6.83348 1.95152 6.89021 2.18259ZM20.2445 20.0337C19.8045 20.0337 19.3808 20.0337 18.9635 20.0337C18.9635 20.3764 18.9635 20.7046 18.9635 21.0275C19.3985 21.0275 19.8171 21.0275 20.2445 21.0275C20.2445 20.6941 20.2445 20.3711 20.2445 20.0337ZM3.49239 6.8249C3.46969 7.69665 4.10009 10.2003 4.44806 10.6598C4.31442 9.34036 4.01687 8.08263 3.49239 6.8249Z" fill="#213CE7"/>
<path id="Vector_2" d="M17.2495 5.37891C17.4777 5.38284 17.5924 5.47475 17.629 5.64542C17.6668 5.82003 17.5937 5.96707 17.4361 6.02221C17.1915 6.10624 16.9393 6.17188 16.6859 6.22046C16.5182 6.25197 16.3947 6.14825 16.348 5.9802C16.3001 5.80953 16.3606 5.65198 16.5182 5.5929C16.7717 5.49706 17.0389 5.43799 17.2495 5.37891Z" fill="#213CE7"/>
<path id="Vector_3" d="M16.0057 14.5698C16.0107 14.7538 15.8668 14.9129 15.6901 14.9194C15.5134 14.9247 15.3606 14.7748 15.3556 14.5908C15.3505 14.4055 15.4932 14.2477 15.6712 14.2425C15.8479 14.2346 16.0006 14.3844 16.0057 14.5698Z" fill="#213CE7"/>
</g>
</g>
<defs>
<clipPath id="clip0_3204_12112">
<rect width="20.9089" height="21.7188" fill="white"/>
</clipPath>
</defs>
</svg>
