<svg width="14" height="22" viewBox="0 0 14 22" fill="none" xmlns="http://www.w3.org/2000/svg">
<g id="Frame" clip-path="url(#clip0_3204_12102)">
<g id="Group">
<path id="Vector" d="M0 10.8637C0 8.05164 0 5.24078 0 2.42868C0 0.950515 0.95761 0.00123283 2.45013 0C5.29927 0 8.14841 0 10.9975 0.00123283C12.4826 0.00123283 13.439 0.93942 13.4402 2.40526C13.4427 7.48084 13.4414 12.5552 13.4414 17.6308C13.4414 18.1868 13.4427 18.7428 13.4414 19.2976C13.4365 20.7807 12.4926 21.7139 10.9851 21.7176C9.21699 21.7225 7.44766 21.7188 5.67957 21.7188C4.6085 21.7188 3.53867 21.7225 2.46759 21.7176C0.950128 21.7102 0.00124689 20.7671 0 19.2704C0 16.4682 0 13.666 0 10.8637ZM12.7382 17.9414C12.7382 13.2037 12.7382 8.49176 12.7382 3.76754C8.71574 3.76754 4.70949 3.76754 0.700751 3.76754C0.700751 8.50162 0.700751 13.2135 0.700751 17.9414C4.71448 17.9414 8.71325 17.9414 12.7382 17.9414ZM12.7544 3.05496C12.7544 2.80346 12.7569 2.57786 12.7544 2.35348C12.7419 1.32653 12.0823 0.681757 11.0424 0.680524C9.12971 0.679292 7.21823 0.680524 5.30551 0.680524C4.30176 0.680524 3.29802 0.67436 2.29427 0.684223C1.57731 0.69162 0.952622 1.11325 0.781799 1.77035C0.675813 2.17842 0.693269 2.61854 0.654616 3.05496C4.72072 3.05496 8.7145 3.05496 12.7544 3.05496ZM12.7694 18.6651C8.71574 18.6651 4.70949 18.6651 0.688282 18.6651C0.688282 18.8944 0.688282 19.1015 0.688282 19.3086C0.689529 20.3948 1.35038 21.0445 2.45886 21.0482C3.23318 21.0506 4.0075 21.0482 4.78181 21.0482C6.86536 21.0482 8.94891 21.0506 11.0325 21.0469C11.8916 21.0457 12.5524 20.5822 12.7045 19.8252C12.7781 19.4541 12.7494 19.0621 12.7694 18.6651Z" fill="#213CE7"/>
<path id="Vector_2" d="M9.24987 8.09744C9.20747 8.17634 9.17256 8.27497 9.11146 8.35387C7.71121 10.155 6.30846 11.955 4.90446 13.7537C4.71369 13.9978 4.52042 14.0483 4.35085 13.8955C4.15384 13.7179 4.20745 13.5318 4.35334 13.3456C5.75733 11.5457 7.15759 9.74451 8.56158 7.9458C8.76483 7.68567 9.06034 7.67458 9.19126 7.91375C9.21745 7.96306 9.22493 8.021 9.24987 8.09744Z" fill="#213CE7"/>
<path id="Vector_3" d="M6.87153 8.01118C6.79921 8.14802 6.76305 8.24542 6.70195 8.32432C6.09471 9.11087 5.48249 9.89372 4.87276 10.6778C4.72813 10.8627 4.5573 10.9626 4.33536 10.8109C4.15331 10.6877 4.14832 10.4916 4.32289 10.2673C4.9376 9.47455 5.54858 8.67937 6.1795 7.89899C6.26055 7.7979 6.45507 7.73133 6.58848 7.74365C6.68823 7.75352 6.77427 7.91379 6.87153 8.01118Z" fill="#213CE7"/>
<path id="Vector_4" d="M6.96822 14.0583C6.84727 13.9683 6.71011 13.919 6.68642 13.8364C6.65151 13.7168 6.654 13.5466 6.71884 13.4468C6.90338 13.1632 7.12782 12.9043 7.3373 12.6356C7.74378 12.1129 8.14902 11.5901 8.55675 11.0686C8.7575 10.811 8.94952 10.7629 9.13157 10.9121C9.29491 11.0465 9.28618 11.2499 9.10289 11.4866C8.50563 12.2559 7.91087 13.0264 7.30613 13.7895C7.22508 13.8931 7.09665 13.9584 6.96822 14.0583Z" fill="#213CE7"/>
<path id="Vector_5" d="M6.72903 2.2164C6.47093 2.2164 6.21282 2.2164 5.95596 2.2164C5.72903 2.21516 5.58065 2.10421 5.57816 1.88107C5.57566 1.65792 5.72529 1.53834 5.94848 1.53587C6.46469 1.52971 6.97966 1.52971 7.49587 1.53587C7.71532 1.53834 7.86994 1.6419 7.86994 1.87367C7.86994 2.1227 7.71033 2.21763 7.47467 2.2164C7.22529 2.2164 6.97716 2.2164 6.72903 2.2164Z" fill="#213CE7"/>
<path id="Vector_6" d="M6.73136 20.1672C6.59795 20.1672 6.44582 20.2067 6.3361 20.1574C6.21016 20.1007 6.04682 19.9687 6.03934 19.859C6.03186 19.7468 6.17774 19.5385 6.28248 19.5212C6.56927 19.4731 6.87351 19.4719 7.16029 19.5188C7.27002 19.536 7.40967 19.7259 7.42713 19.8529C7.45206 20.0341 7.30992 20.1611 7.10418 20.1672C6.98074 20.1709 6.85605 20.1685 6.73261 20.1685C6.73136 20.1672 6.73136 20.1672 6.73136 20.1672Z" fill="#213CE7"/>
<path id="Vector_7" d="M4.31599 20.1672C4.19255 20.1672 4.06786 20.1722 3.94442 20.166C3.74367 20.1549 3.59404 20.0378 3.62521 19.8492C3.64516 19.7222 3.78232 19.5348 3.8908 19.5175C4.17758 19.4719 4.48307 19.4732 4.76861 19.5225C4.87459 19.541 5.02422 19.7481 5.01549 19.8603C5.00801 19.9688 4.83843 20.0982 4.71125 20.1562C4.60028 20.2055 4.4494 20.166 4.31599 20.1672C4.31599 20.166 4.31599 20.166 4.31599 20.1672Z" fill="#213CE7"/>
<path id="Vector_8" d="M9.10992 20.1687C8.98648 20.1687 8.84433 20.2069 8.74333 20.1588C8.6174 20.0996 8.46902 19.9874 8.42912 19.8666C8.36802 19.6829 8.50019 19.5251 8.69346 19.5079C8.9765 19.482 9.26453 19.482 9.54758 19.5066C9.7396 19.5239 9.84558 19.6706 9.82688 19.8691C9.81067 20.0528 9.69845 20.1576 9.50892 20.1674C9.37675 20.1748 9.24334 20.1687 9.10992 20.1687Z" fill="#213CE7"/>
</g>
</g>
<defs>
<clipPath id="clip0_3204_12102">
<rect width="13.4414" height="21.7188" fill="white"/>
</clipPath>
</defs>
</svg>
