<svg width="14" height="22" viewBox="0 0 14 22" fill="none" xmlns="http://www.w3.org/2000/svg">
<g id="Frame" clip-path="url(#clip0_90_614)">
<g id="Group">
<path id="Vector" d="M0 10.8637C0 8.05164 0 5.24078 0 2.42868C0 0.950515 0.95761 0.00123283 2.45013 0C5.29927 0 8.14841 0 10.9975 0.00123283C12.4826 0.00123283 13.439 0.93942 13.4402 2.40526C13.4427 7.48084 13.4414 12.5552 13.4414 17.6308C13.4414 18.1868 13.4427 18.7428 13.4414 19.2976C13.4365 20.7807 12.4926 21.7139 10.9851 21.7176C9.21699 21.7225 7.44766 21.7188 5.67957 21.7188C4.6085 21.7188 3.53867 21.7225 2.46759 21.7176C0.950128 21.7102 0.00124689 20.7671 0 19.2704C0 16.4682 0 13.666 0 10.8637ZM12.7382 17.9414C12.7382 13.2037 12.7382 8.49176 12.7382 3.76754C8.71574 3.76754 4.70949 3.76754 0.700751 3.76754C0.700751 8.50162 0.700751 13.2135 0.700751 17.9414C4.71448 17.9414 8.71325 17.9414 12.7382 17.9414ZM12.7544 3.05496C12.7544 2.80346 12.7569 2.57786 12.7544 2.35348C12.7419 1.32653 12.0823 0.681757 11.0424 0.680524C9.12971 0.679292 7.21823 0.680524 5.30551 0.680524C4.30176 0.680524 3.29802 0.67436 2.29427 0.684223C1.57731 0.69162 0.952622 1.11325 0.781799 1.77035C0.675813 2.17842 0.693269 2.61854 0.654616 3.05496C4.72072 3.05496 8.7145 3.05496 12.7544 3.05496ZM12.7694 18.6651C8.71574 18.6651 4.70949 18.6651 0.688282 18.6651C0.688282 18.8944 0.688282 19.1015 0.688282 19.3086C0.689529 20.3948 1.35038 21.0445 2.45886 21.0482C3.23318 21.0506 4.0075 21.0482 4.78181 21.0482C6.86536 21.0482 8.94891 21.0506 11.0325 21.0469C11.8916 21.0457 12.5524 20.5822 12.7045 19.8252C12.7781 19.4541 12.7494 19.0621 12.7694 18.6651Z" fill="#213CE7"/>
<path id="Vector_2" d="M9.25084 8.09849C9.20845 8.17739 9.17354 8.27601 9.11244 8.35491C7.71218 10.1561 6.30943 11.956 4.90544 13.7547C4.71467 13.9988 4.5214 14.0494 4.35182 13.8965C4.15481 13.719 4.20843 13.5328 4.35431 13.3467C5.75831 11.5467 7.15856 9.74555 8.56256 7.94685C8.7658 7.68672 9.06132 7.67562 9.19224 7.91479C9.21842 7.96411 9.2259 8.02205 9.25084 8.09849Z" fill="#213CE7"/>
<path id="Vector_3" d="M6.87055 8.00972C6.79823 8.14657 6.76207 8.24396 6.70097 8.32286C6.09374 9.10941 5.48152 9.89226 4.87179 10.6763C4.72715 10.8613 4.55633 10.9611 4.33438 10.8095C4.15233 10.6862 4.14735 10.4902 4.32191 10.2658C4.93663 9.47309 5.5476 8.67792 6.17853 7.89753C6.25957 7.79644 6.45409 7.72987 6.58751 7.7422C6.68726 7.75206 6.77329 7.91233 6.87055 8.00972Z" fill="#213CE7"/>
<path id="Vector_4" d="M6.96871 14.058C6.84776 13.968 6.7106 13.9187 6.68691 13.8361C6.652 13.7165 6.65449 13.5464 6.71933 13.4465C6.90387 13.163 7.12831 12.9041 7.33779 12.6353C7.74427 12.1126 8.14951 11.5899 8.55724 11.0684C8.75799 10.8107 8.95001 10.7626 9.13206 10.9118C9.2954 11.0462 9.28667 11.2496 9.10338 11.4863C8.50612 12.2556 7.91135 13.0261 7.30661 13.7892C7.22557 13.8928 7.09714 13.9581 6.96871 14.058Z" fill="#213CE7"/>
<path id="Vector_5" d="M6.72806 2.21664C6.46995 2.21664 6.21184 2.21664 5.95499 2.21664C5.72805 2.2154 5.57967 2.10445 5.57718 1.8813C5.57469 1.65816 5.72431 1.53858 5.9475 1.53611C6.46372 1.52995 6.97868 1.52995 7.49489 1.53611C7.71434 1.53858 7.86896 1.64213 7.86896 1.87391C7.86896 2.12294 7.70936 2.21787 7.4737 2.21664C7.22432 2.21664 6.97619 2.21664 6.72806 2.21664Z" fill="#213CE7"/>
<path id="Vector_6" d="M6.72941 20.1679C6.59599 20.1679 6.44387 20.2074 6.33415 20.1581C6.20821 20.1014 6.04487 19.9694 6.03739 19.8597C6.0299 19.7475 6.17579 19.5392 6.28053 19.5219C6.56731 19.4738 6.87155 19.4726 7.15834 19.5195C7.26806 19.5367 7.40772 19.7266 7.42517 19.8536C7.45011 20.0348 7.30796 20.1618 7.10223 20.1679C6.97879 20.1716 6.8541 20.1692 6.73066 20.1692C6.72941 20.1679 6.72941 20.1679 6.72941 20.1679Z" fill="#213CE7"/>
<path id="Vector_7" d="M4.31696 20.1692C4.19352 20.1692 4.06883 20.1741 3.94539 20.1679C3.74464 20.1568 3.59502 20.0397 3.62619 19.8511C3.64614 19.7241 3.7833 19.5367 3.89178 19.5195C4.17856 19.4738 4.48405 19.4751 4.76958 19.5244C4.87557 19.5429 5.0252 19.75 5.01647 19.8622C5.00899 19.9707 4.83941 20.1001 4.71223 20.1581C4.60125 20.2074 4.45038 20.1679 4.31696 20.1692C4.31696 20.1679 4.31696 20.1679 4.31696 20.1692Z" fill="#213CE7"/>
<path id="Vector_8" d="M9.1109 20.1679C8.98745 20.1679 8.84531 20.2061 8.74431 20.1581C8.61837 20.0989 8.46999 19.9867 8.43009 19.8659C8.369 19.6822 8.50117 19.5244 8.69444 19.5071C8.97748 19.4812 9.26551 19.4812 9.54855 19.5059C9.74057 19.5232 9.84656 19.6699 9.82786 19.8684C9.81165 20.052 9.69943 20.1568 9.5099 20.1667C9.37773 20.1741 9.24431 20.1679 9.1109 20.1679Z" fill="#213CE7"/>
</g>
</g>
<defs>
<clipPath id="clip0_90_614">
<rect width="13.4414" height="21.7188" fill="white"/>
</clipPath>
</defs>
</svg>
