<svg width="28" height="22" viewBox="0 0 28 22" fill="none" xmlns="http://www.w3.org/2000/svg">
<path d="M24.9148 16.5827L17.6282 18.4219C17.3777 18.4852 17.1245 18.3333 17.061 18.0818C16.9975 17.8303 17.1484 17.5765 17.3988 17.5132L24.6875 15.6735C25.4369 15.4844 25.8904 14.7183 25.701 13.9679L22.856 2.69644C22.6661 1.94393 21.9019 1.4874 21.1544 1.67606L2.5046 6.38339C1.75513 6.57256 1.30169 7.33859 1.49111 8.08907L4.33609 19.3605C4.52603 20.113 5.2902 20.5695 6.03765 20.3809L13.3263 18.5412C13.5768 18.478 13.83 18.6298 13.8935 18.8813C13.9569 19.1328 13.8061 19.3866 13.5556 19.4499L6.26701 21.2896C5.01857 21.6047 3.74695 20.8404 3.43107 19.5889L0.586093 8.3175C0.2697 7.064 1.02882 5.7893 2.27524 5.4747L20.9251 0.767366C22.1735 0.452252 23.4451 1.21653 23.761 2.46801L26.606 13.7394C26.9224 14.9929 26.1633 16.2676 24.9148 16.5827Z" fill="#273BE2"/>
<path d="M14.6343 15.2358C14.5192 15.2649 14.3908 15.2498 14.2814 15.1825L1.2411 7.36257C1.01828 7.22894 0.946091 6.94295 1.07881 6.71958C1.21153 6.49622 1.49637 6.42432 1.71919 6.55795L14.3589 14.1359L21.8907 1.46007C22.0234 1.23671 22.3082 1.16481 22.531 1.29844C22.7539 1.43206 22.8261 1.71805 22.6933 1.94142L14.9218 15.0209C14.8554 15.1326 14.7515 15.2062 14.6343 15.2358Z" fill="#273BE2"/>
<path d="M4.88305 21.0278C4.76791 21.0568 4.63947 21.0418 4.53008 20.9744C4.30726 20.8408 4.23507 20.5548 4.36779 20.3315L9.4669 11.7497C9.59962 11.5264 9.88447 11.4545 10.1073 11.5881C10.3301 11.7217 10.4023 12.0077 10.2696 12.2311L5.17047 20.8128C5.10411 20.9245 5.00022 20.9982 4.88305 21.0278Z" fill="#273BE2"/>
<path d="M25.8465 15.599C25.7313 15.6281 25.6029 15.6131 25.4935 15.5457L17.0672 10.4944C16.8444 10.3608 16.7722 10.0748 16.9049 9.85144C17.0376 9.62807 17.3225 9.55618 17.5453 9.6898L25.9701 14.7437C26.1929 14.8773 26.2651 15.1633 26.1324 15.3866C26.0675 15.4958 25.9636 15.5695 25.8465 15.599Z" fill="#273BE2"/>
<path d="M15.5901 18.9364C15.5759 18.9399 15.5598 18.944 15.5451 18.9456C15.5304 18.9471 15.5158 18.9486 15.4991 18.9507C15.4693 18.9517 15.439 18.9508 15.4076 18.9457C15.3763 18.9407 15.3469 18.9352 15.3181 18.923C15.3039 18.918 15.2897 18.9129 15.2751 18.9058C15.2604 18.8988 15.2477 18.8912 15.2351 18.8836C15.2224 18.876 15.2092 18.8664 15.1966 18.8588C15.1834 18.8491 15.1723 18.839 15.1611 18.8289C15.1388 18.8086 15.118 18.7858 15.0987 18.7605C15.0799 18.7372 15.0642 18.7088 15.0509 18.6819C15.0453 18.6682 15.0372 18.653 15.0336 18.6388C15.028 18.6251 15.0239 18.6089 15.0203 18.5947C15.0168 18.5805 15.0147 18.5638 15.0111 18.5496C15.0095 18.5349 15.0075 18.5181 15.0059 18.5034C15.0048 18.4735 15.0057 18.4431 15.0106 18.4116C15.0161 18.3822 15.0231 18.3502 15.0331 18.3218C15.0381 18.3076 15.0431 18.2934 15.0501 18.2787C15.0572 18.2639 15.0647 18.2513 15.0723 18.2386C15.0798 18.2259 15.0894 18.2127 15.0969 18.2C15.1065 18.1868 15.1165 18.1756 15.1266 18.1644C15.1468 18.1421 15.1694 18.1213 15.1946 18.102C15.2178 18.0832 15.2461 18.0674 15.2728 18.0542C15.286 18.0465 15.2996 18.0409 15.3157 18.0369C15.3455 18.0272 15.3758 18.0195 15.4046 18.0144C15.4193 18.0129 15.4339 18.0114 15.4506 18.0093C15.4804 18.0082 15.5108 18.0092 15.5421 18.0143C15.5714 18.0198 15.6008 18.0253 15.6316 18.037C15.6458 18.042 15.66 18.0471 15.6747 18.0542C15.6893 18.0612 15.702 18.0688 15.7147 18.0764C15.7273 18.084 15.7405 18.0936 15.7532 18.1012C15.7663 18.1108 15.7775 18.121 15.7886 18.1311C15.8109 18.1514 15.8317 18.1742 15.851 18.1995C15.8703 18.2248 15.8856 18.2512 15.8988 18.2781C15.9044 18.2918 15.912 18.3049 15.9161 18.3212C15.9217 18.3348 15.9258 18.3511 15.9294 18.3653C15.933 18.3795 15.9371 18.3957 15.9386 18.4104C15.9402 18.4251 15.9423 18.4418 15.9438 18.4566C15.9449 18.4865 15.944 18.5169 15.9391 18.5484C15.9341 18.5798 15.9266 18.6098 15.9166 18.6382C15.9116 18.6524 15.9066 18.6666 15.8996 18.6813C15.8925 18.696 15.885 18.7087 15.8775 18.7214C15.8699 18.7341 15.8604 18.7473 15.8528 18.76C15.8433 18.7732 15.8332 18.7844 15.8231 18.7956C15.803 18.8179 15.7803 18.8387 15.7551 18.858C15.7299 18.8773 15.7036 18.8926 15.6769 18.9058C15.6638 18.9134 15.6501 18.919 15.634 18.9231C15.6204 18.9287 15.6062 18.9323 15.5901 18.9364Z" fill="#273BE2"/>
</svg>
