<svg width="24" height="17" viewBox="0 0 24 17" fill="none" xmlns="http://www.w3.org/2000/svg">
<g opacity="0.95">
<path d="M21.5662 16.3109H14.051C13.7927 16.3109 13.5843 16.1017 13.5843 15.8423C13.5843 15.5829 13.7927 15.3737 14.051 15.3737H21.5682C22.3412 15.3737 22.9683 14.7419 22.9683 13.9679V2.34297C22.9683 1.56686 22.3391 0.93719 21.5682 0.93719H2.3335C1.56053 0.93719 0.933404 1.56896 0.933404 2.34297V13.9679C0.933404 14.744 1.56261 15.3737 2.3335 15.3737H9.85072C10.1091 15.3737 10.3174 15.5829 10.3174 15.8423C10.3174 16.1017 10.1091 16.3109 9.85072 16.3109H2.3335C1.04591 16.3109 0 15.2586 0 13.9679V2.34297C0 1.05015 1.04799 0 2.3335 0H21.5682C22.8558 0 23.9017 1.05225 23.9017 2.34297V13.9679C23.9017 15.2607 22.8537 16.3109 21.5662 16.3109Z" fill="#959DEB"/>
<path d="M11.9271 12.4886C11.8084 12.4886 11.6875 12.4426 11.5979 12.3505L0.867979 1.57702C0.684632 1.39293 0.684632 1.09797 0.867979 0.913875C1.05133 0.729784 1.3451 0.729784 1.52844 0.913875L11.9292 11.3548L22.3341 0.907599C22.5175 0.723509 22.8112 0.723509 22.9946 0.907599C23.1779 1.09169 23.1779 1.38666 22.9946 1.57075L12.2584 12.3505C12.1667 12.4426 12.048 12.4886 11.9271 12.4886Z" fill="#959DEB"/>
<path d="M1.05655 15.7192C0.937789 15.7192 0.816944 15.6731 0.727354 15.5811C0.544007 15.397 0.544007 15.102 0.727354 14.918L7.77162 7.8451C7.95496 7.66101 8.24875 7.66101 8.43209 7.8451C8.61544 8.02919 8.61544 8.32415 8.43209 8.50824L1.38783 15.5811C1.29615 15.6731 1.17739 15.7192 1.05655 15.7192Z" fill="#959DEB"/>
<path d="M22.7091 15.5867C22.5904 15.5867 22.4695 15.5406 22.3799 15.4486L15.4461 8.48871C15.2628 8.30462 15.2628 8.00966 15.4461 7.82557C15.6295 7.64148 15.9232 7.64148 16.1066 7.82557L23.0383 14.7875C23.2217 14.9716 23.2217 15.2666 23.0383 15.4507C22.9487 15.5406 22.83 15.5867 22.7091 15.5867Z" fill="#959DEB"/>
<path d="M11.9493 16.3119C11.9347 16.3119 11.918 16.3119 11.9034 16.3099C11.8888 16.3078 11.8742 16.3057 11.8576 16.3036C11.8284 16.2973 11.7992 16.2889 11.7701 16.2764C11.7409 16.2638 11.7138 16.2513 11.6888 16.2325C11.6763 16.2241 11.6638 16.2157 11.6513 16.2053C11.6388 16.1948 11.6284 16.1843 11.618 16.1739C11.6076 16.1634 11.5971 16.1509 11.5867 16.1404C11.5763 16.1279 11.568 16.1153 11.5596 16.1027C11.543 16.0776 11.5284 16.0505 11.5159 16.0212C11.5034 15.994 11.495 15.9626 11.4888 15.9333C11.4867 15.9187 11.4825 15.9019 11.4825 15.8873C11.4805 15.8726 11.4805 15.8559 11.4805 15.8413C11.4805 15.8266 11.4825 15.8099 11.4825 15.7952C11.4846 15.7806 11.4867 15.7639 11.4888 15.7492C11.495 15.7199 11.5034 15.6906 11.5159 15.6614C11.5284 15.6342 11.543 15.6049 11.5596 15.5798C11.568 15.5672 11.5763 15.5547 11.5867 15.5421C11.5971 15.5296 11.6076 15.5191 11.618 15.5086C11.6284 15.4982 11.6409 15.4877 11.6513 15.4773C11.6638 15.4668 11.6763 15.4584 11.6888 15.4501C11.7138 15.4333 11.7409 15.4187 11.7701 15.4061C11.7972 15.3936 11.8284 15.3852 11.8576 15.3789C11.8722 15.3748 11.8867 15.3727 11.9034 15.3727C11.9347 15.3706 11.9659 15.3706 11.9951 15.3727C12.0097 15.3748 12.0243 15.3768 12.0409 15.3789C12.0701 15.3852 12.0993 15.3936 12.1284 15.4061C12.1555 15.4187 12.1826 15.4312 12.2097 15.4501C12.2222 15.4584 12.2347 15.4668 12.2472 15.4773C12.2597 15.4877 12.2701 15.4982 12.2805 15.5086C12.2909 15.5191 12.3014 15.5316 12.3118 15.5421C12.3222 15.5547 12.3305 15.5672 12.3389 15.5798C12.3555 15.6049 12.3701 15.6321 12.3826 15.6614C12.3951 15.6906 12.4035 15.7199 12.4097 15.7492C12.4118 15.7639 12.416 15.7785 12.416 15.7952C12.418 15.8099 12.418 15.8266 12.418 15.8413C12.418 15.8559 12.418 15.8726 12.416 15.8873C12.4139 15.9019 12.4118 15.9187 12.4097 15.9333C12.4035 15.9626 12.3951 15.9919 12.3826 16.0212C12.3701 16.0505 12.3555 16.0776 12.3389 16.1027C12.3305 16.1153 12.3222 16.1279 12.3118 16.1404C12.3014 16.153 12.2909 16.1634 12.2805 16.1739C12.2701 16.1843 12.2576 16.1948 12.2472 16.2053C12.2347 16.2157 12.2222 16.2241 12.2097 16.2325C12.1847 16.2492 12.1576 16.2638 12.1284 16.2764C12.0993 16.2889 12.0701 16.2973 12.0409 16.3036C12.0263 16.3078 12.0118 16.3099 11.9951 16.3099C11.9805 16.3119 11.9659 16.3119 11.9493 16.3119Z" fill="#959DEB"/>
</g>
</svg>
