<svg width="22" height="25" viewBox="0 0 22 25" fill="none" xmlns="http://www.w3.org/2000/svg">
<g id="Wizzard icons" opacity="0.95">
<path id="Vector" d="M16.8906 0C17.097 0 17.3016 0 17.508 0C17.5444 0.0121893 17.5826 0.0278613 17.6207 0.0348266C18.6457 0.221149 19.3776 0.788824 19.7175 1.7779C20.0245 2.67643 20.2603 3.59934 20.5274 4.51005C20.687 5.05161 20.5899 5.22748 20.054 5.38246C15.0661 6.83299 10.08 8.28352 5.0922 9.73406C5.01936 9.75495 4.94825 9.78629 4.87541 9.81416C4.88061 9.82635 4.88408 9.83679 4.88929 9.84898C4.976 9.84898 5.06272 9.84898 5.14943 9.84898C10.3436 9.84898 15.5361 9.84898 20.7303 9.84898C21.2003 9.84898 21.3807 10.0005 21.3807 10.4306C21.3842 14.1919 21.3911 17.9549 21.3755 21.7162C21.3703 22.9316 20.6454 23.8963 19.5475 24.255C19.3915 24.3055 19.2319 24.3438 19.0724 24.3874C17.0155 24.3874 14.9603 24.3874 12.9035 24.3874C12.8584 24.356 12.8133 24.3264 12.7699 24.2951C12.6052 24.1767 12.5393 24.013 12.5792 23.818C12.619 23.6212 12.7474 23.4958 12.9434 23.4558C13.0353 23.4366 13.1324 23.4366 13.226 23.4366C14.9968 23.4349 16.7675 23.4366 18.5399 23.4366C19.7348 23.4366 20.4303 22.7436 20.432 21.5507C20.4338 19.543 20.432 17.5335 20.432 15.5257C20.432 15.4404 20.4251 15.3568 20.4199 15.2698C14.2181 15.2698 8.0405 15.2698 1.84733 15.2698C1.84733 15.3586 1.84733 15.4282 1.84733 15.4996C1.84733 17.5405 1.8456 19.5796 1.84733 21.6204C1.84907 22.7227 2.56186 23.4349 3.66141 23.4383C4.53896 23.4401 5.41651 23.4383 6.29407 23.4383C7.24273 23.4383 8.19139 23.4366 9.14005 23.4383C9.4713 23.4383 9.67421 23.5916 9.70196 23.8632C9.7297 24.1349 9.56495 24.2829 9.34296 24.3891C7.28608 24.3891 5.23094 24.3891 3.17407 24.3891C3.16193 24.3787 3.15326 24.363 3.13938 24.3595C1.61667 23.9851 0.895206 23.0605 0.895206 21.4828C0.895206 17.9114 0.89694 14.3416 0.890003 10.7701C0.890003 10.5211 0.850113 10.2652 0.785944 10.0249C0.615983 9.38927 0.416539 8.76413 0.243109 8.13029C0.145988 7.77157 0.0297916 7.40937 0.00551142 7.04369C-0.0742662 5.776 0.718307 4.69812 1.97567 4.33244C5.84662 3.20231 9.7193 2.07741 13.592 0.952509C14.695 0.632104 15.7928 0.316923 16.8906 0ZM19.5493 4.53966C19.3013 3.69337 19.088 2.8732 18.8174 2.07219C18.5451 1.26073 17.7109 0.799272 16.8889 1.00127C16.0634 1.205 15.25 1.46446 14.4331 1.70128C14.3689 1.72044 14.3065 1.74307 14.2389 1.76745C14.2579 1.80054 14.2614 1.81795 14.2718 1.8284C15.3696 2.89061 16.4674 3.95109 17.5687 5.00808C17.6086 5.04638 17.6953 5.07076 17.7491 5.05509C18.3405 4.89141 18.9301 4.71901 19.5493 4.53966ZM5.85009 8.52557C5.84315 8.49248 5.84315 8.48204 5.83795 8.47681C4.72973 7.40241 3.61978 6.32975 2.5081 5.25883C2.47515 5.22748 2.41098 5.20485 2.36589 5.21007C1.50915 5.31629 0.787678 6.29318 0.980184 7.14469C1.15015 7.89172 1.38428 8.62483 1.59066 9.36489C1.62361 9.4833 1.6635 9.60171 1.70165 9.73057C3.09949 9.32484 4.46959 8.92608 5.85009 8.52557ZM20.4182 10.8032C20.3262 10.8032 20.2499 10.8032 20.1719 10.8032C19.61 10.8032 19.0498 10.8085 18.4879 10.7998C18.3249 10.7963 18.2364 10.8485 18.1549 10.993C17.5704 12.0274 16.9739 13.0548 16.3807 14.0839C16.346 14.1431 16.3166 14.2058 16.2749 14.2842C17.671 14.2842 19.0394 14.2842 20.4182 14.2842C20.4182 13.1209 20.4182 11.9752 20.4182 10.8032ZM1.86121 14.2998C2.50983 14.2998 3.14806 14.2946 3.78454 14.3033C3.94583 14.3051 4.03775 14.258 4.11926 14.1153C4.70372 13.0826 5.29858 12.0553 5.88998 11.0261C5.92466 10.9669 5.95241 10.9042 5.99403 10.8206C4.59966 10.8206 3.23303 10.8206 1.86121 10.8206C1.86121 11.9821 1.86121 13.1279 1.86121 14.2998ZM10.6766 2.79484C10.6628 2.81922 10.6489 2.84534 10.635 2.86972C10.7061 2.91848 10.7859 2.95678 10.8483 3.01599C11.7727 3.90407 12.7144 4.77474 13.6076 5.69416C13.951 6.04765 14.2475 6.13472 14.7071 5.96233C15.3072 5.73769 15.9367 5.58968 16.5784 5.40336C16.5333 5.34764 16.5143 5.31629 16.4865 5.29017C15.4095 4.25234 14.3343 3.21276 13.2521 2.18015C13.1948 2.12617 13.0665 2.10527 12.9867 2.12617C12.5982 2.22717 12.2132 2.34732 11.8265 2.45876C11.4432 2.57021 11.0599 2.68165 10.6766 2.79484ZM13.0127 6.43771C12.9642 6.38199 12.9399 6.35064 12.9121 6.32452C11.8351 5.28495 10.7581 4.24537 9.67594 3.21276C9.62045 3.15878 9.49037 3.14311 9.40886 3.164C9.0568 3.25455 8.71167 3.36426 8.36308 3.467C7.94338 3.58889 7.52368 3.71078 7.08491 3.8379C7.12306 3.8884 7.1404 3.91452 7.16121 3.93541C8.24341 4.98021 9.32388 6.02676 10.413 7.06459C10.4685 7.11857 10.6003 7.1325 10.6818 7.11161C11.1241 6.99494 11.5629 6.86086 12.0016 6.732C12.3311 6.63622 12.6624 6.54045 13.0127 6.43771ZM9.47476 7.46858C9.37071 7.37803 9.30827 7.32927 9.25104 7.27529C8.29197 6.35238 7.3225 5.44167 6.38425 4.49961C6.1085 4.22273 5.87957 4.15482 5.51016 4.28368C4.8598 4.5118 4.18863 4.6807 3.43942 4.89837C3.56255 4.98718 3.64059 5.03071 3.70129 5.08992C4.6829 6.03372 5.67145 6.9723 6.63572 7.93178C6.85771 8.15292 7.03981 8.1982 7.33117 8.10242C8.02142 7.87605 8.72381 7.68799 9.47476 7.46858ZM8.84348 14.2859C8.9354 14.2911 9.00303 14.2981 9.07067 14.2981C9.78867 14.2981 10.5067 14.2929 11.2264 14.3033C11.3894 14.3051 11.4779 14.2528 11.5594 14.11C12.1404 13.0844 12.7318 12.0657 13.3197 11.0435C13.3578 10.9774 13.3908 10.9077 13.4376 10.8172C13.344 10.8119 13.2763 10.8032 13.2087 10.8032C12.4907 10.8015 11.7727 10.8067 11.053 10.7998C10.8917 10.798 10.8015 10.8485 10.72 10.9913C10.1355 12.0239 9.54067 13.0513 8.95101 14.0787C8.91632 14.1396 8.88684 14.2023 8.84348 14.2859ZM17.1456 10.8276C17.1039 10.8172 17.0814 10.805 17.0606 10.805C16.2697 10.8032 15.4789 10.7998 14.6881 10.8102C14.6117 10.8119 14.5077 10.8938 14.4643 10.9669C13.8539 12.0135 13.2503 13.0652 12.6468 14.117C12.6173 14.1675 12.6 14.2232 12.5653 14.2998C13.3787 14.2998 14.1608 14.2946 14.943 14.3033C15.106 14.3051 15.1962 14.2528 15.276 14.1118C15.8622 13.0774 16.457 12.0483 17.0484 11.0192C17.0831 10.9582 17.1109 10.8955 17.1456 10.8276ZM9.72277 10.8032C9.61351 10.8032 9.5372 10.8032 9.45916 10.8032C8.75677 10.8032 8.05264 10.8085 7.35025 10.7998C7.18029 10.798 7.08317 10.8468 6.99645 11C6.41547 12.0257 5.82407 13.0461 5.23615 14.0682C5.19799 14.1344 5.16677 14.2041 5.11821 14.2998C5.21707 14.2998 5.28644 14.2998 5.35408 14.2998C6.07207 14.2998 6.79181 14.2946 7.50981 14.3033C7.6763 14.3051 7.75954 14.2476 7.83932 14.1065C8.42031 13.0809 9.01171 12.0605 9.5979 11.0383C9.63952 10.9721 9.67247 10.9025 9.72277 10.8032Z" fill="#959DEB"/>
<path id="Vector_2" d="M11.0093 24.3891C10.9642 24.3578 10.9191 24.3282 10.8758 24.2968C10.6954 24.1645 10.6312 23.9834 10.6971 23.7744C10.7613 23.5637 10.9226 23.4436 11.1394 23.4453C11.3544 23.4471 11.5157 23.5585 11.5816 23.7727C11.651 23.9973 11.5782 24.1767 11.3874 24.3073C11.3423 24.3386 11.292 24.363 11.2452 24.3891C11.1671 24.3891 11.0874 24.3891 11.0093 24.3891Z" fill="#959DEB"/>
<path id="Vector_3" d="M9.30232 19.2723C9.30232 18.5183 9.30059 17.7643 9.30232 17.0103C9.30406 16.474 9.65785 16.2668 10.1209 16.5349C11.4424 17.2976 12.7622 18.0621 14.082 18.83C14.5312 19.0912 14.5364 19.5091 14.0924 19.7669C12.7605 20.5417 11.4268 21.3149 10.0897 22.0846C9.66653 22.3284 9.30406 22.1194 9.30232 21.6301C9.29885 20.843 9.30232 20.0577 9.30232 19.2723ZM12.9981 19.3002C12.0633 18.7586 11.1736 18.2432 10.2683 17.719C10.2683 18.7865 10.2683 19.8191 10.2683 20.8813C11.1806 20.3519 12.0685 19.8382 12.9981 19.3002Z" fill="#959DEB"/>
</g>
</svg>
