<svg width="22" height="25" viewBox="0 0 22 25" fill="none" xmlns="http://www.w3.org/2000/svg">
<g id="Property 1=Media Precionado">
<path id="Vector" d="M17.3266 0.609131C17.533 0.609131 17.7377 0.609131 17.9441 0.609131C17.9805 0.62132 18.0186 0.636992 18.0568 0.643957C19.0818 0.83028 19.8136 1.39796 20.1535 2.38703C20.4605 3.28556 20.6964 4.20847 20.9635 5.11918C21.123 5.66074 21.0259 5.83661 20.49 5.99159C15.5022 7.44212 10.5161 8.89266 5.52823 10.3432C5.45539 10.3641 5.38429 10.3954 5.31145 10.4233C5.31665 10.4355 5.32012 10.4459 5.32532 10.4581C5.41204 10.4581 5.49875 10.4581 5.58547 10.4581C10.7797 10.4581 15.9722 10.4581 21.1664 10.4581C21.6364 10.4581 21.8167 10.6096 21.8167 11.0397C21.8202 14.801 21.8271 18.564 21.8115 22.3253C21.8063 23.5408 21.0814 24.5055 19.9836 24.8642C19.8275 24.9147 19.6679 24.953 19.5084 24.9965C17.4515 24.9965 15.3964 24.9965 13.3395 24.9965C13.2944 24.9652 13.2493 24.9356 13.206 24.9042C13.0412 24.7858 12.9753 24.6221 13.0152 24.4271C13.0551 24.2303 13.1834 24.1049 13.3794 24.0649C13.4713 24.0457 13.5684 24.0457 13.6621 24.0457C15.4328 24.044 17.2035 24.0457 18.976 24.0457C20.1709 24.0457 20.8663 23.3527 20.8681 22.1599C20.8698 20.1521 20.8681 18.1426 20.8681 16.1349C20.8681 16.0495 20.8611 15.966 20.8559 15.8789C14.6541 15.8789 8.47653 15.8789 2.28337 15.8789C2.28337 15.9677 2.28337 16.0373 2.28337 16.1087C2.28337 18.1496 2.28163 20.1887 2.28337 22.2295C2.2851 23.3318 2.9979 24.044 4.09744 24.0475C4.97499 24.0492 5.85255 24.0475 6.7301 24.0475C7.67876 24.0475 8.62742 24.0457 9.57608 24.0475C9.90733 24.0475 10.1102 24.2007 10.138 24.4724C10.1657 24.744 10.001 24.892 9.77899 24.9982C7.72212 24.9982 5.66698 24.9982 3.6101 24.9982C3.59796 24.9878 3.58929 24.9721 3.57542 24.9686C2.05271 24.5943 1.33124 23.6696 1.33124 22.092C1.33124 18.5205 1.33298 14.9508 1.32604 11.3793C1.32604 11.1303 1.28615 10.8743 1.22198 10.634C1.05202 9.9984 0.852574 9.37326 0.679144 8.73942C0.582024 8.3807 0.465827 8.0185 0.441547 7.65282C0.361769 6.38513 1.15434 5.30725 2.41171 4.94157C6.28265 3.81144 10.1553 2.68654 14.028 1.56164C15.131 1.24123 16.2288 0.926054 17.3266 0.609131ZM19.9853 5.14879C19.7373 4.3025 19.524 3.48233 19.2534 2.68132C18.9812 1.86986 18.147 1.4084 17.3249 1.6104C16.4994 1.81413 15.686 2.07359 14.8691 2.31041C14.805 2.32957 14.7425 2.35221 14.6749 2.37658C14.694 2.40967 14.6975 2.42708 14.7079 2.43753C15.8057 3.49974 16.9035 4.56022 18.0047 5.61721C18.0446 5.65552 18.1314 5.67989 18.1851 5.66422C18.7765 5.50054 19.3662 5.32815 19.9853 5.14879ZM6.28612 9.1347C6.27918 9.10161 6.27918 9.09117 6.27398 9.08594C5.16577 8.01154 4.05582 6.93888 2.94414 5.86796C2.91118 5.83661 2.84701 5.81398 2.80192 5.8192C1.94518 5.92542 1.22371 6.90231 1.41622 7.75382C1.58618 8.50085 1.82031 9.23396 2.02669 9.97402C2.05964 10.0924 2.09953 10.2108 2.13769 10.3397C3.53553 9.93397 4.90562 9.53521 6.28612 9.1347ZM20.8542 11.4124C20.7623 11.4124 20.686 11.4124 20.6079 11.4124C20.046 11.4124 19.4858 11.4176 18.9239 11.4089C18.7609 11.4054 18.6725 11.4576 18.5909 11.6022C18.0065 12.6365 17.4099 13.6639 16.8168 14.693C16.7821 14.7522 16.7526 14.8149 16.711 14.8933C18.1071 14.8933 19.4754 14.8933 20.8542 14.8933C20.8542 13.7301 20.8542 12.5843 20.8542 11.4124ZM2.29724 14.909C2.94587 14.909 3.58409 14.9037 4.22058 14.9124C4.38187 14.9142 4.47378 14.8672 4.55529 14.7244C5.13975 13.6918 5.73462 12.6644 6.32601 11.6353C6.3607 11.576 6.38844 11.5134 6.43007 11.4298C5.03569 11.4298 3.66907 11.4298 2.29724 11.4298C2.29724 12.5912 2.29724 13.737 2.29724 14.909ZM11.1127 3.40397C11.0988 3.42835 11.0849 3.45447 11.071 3.47885C11.1421 3.52761 11.2219 3.56592 11.2844 3.62512C12.2087 4.5132 13.1505 5.38387 14.0436 6.30329C14.387 6.65678 14.6836 6.74385 15.1432 6.57146C15.7432 6.34682 16.3728 6.19881 17.0145 6.01249C16.9694 5.95677 16.9503 5.92542 16.9226 5.8993C15.8456 4.86147 14.7703 3.82189 13.6881 2.78928C13.6309 2.7353 13.5025 2.7144 13.4227 2.7353C13.0343 2.8363 12.6493 2.95645 12.2625 3.06789C11.8792 3.17934 11.4959 3.29078 11.1127 3.40397ZM13.4488 7.04684C13.4002 6.99112 13.3759 6.95977 13.3482 6.93365C12.2712 5.89408 11.1942 4.8545 10.112 3.82189C10.0565 3.76791 9.92641 3.75224 9.84489 3.77313C9.49283 3.86368 9.14771 3.97339 8.79912 4.07613C8.37942 4.19802 7.95972 4.31991 7.52094 4.44703C7.55909 4.49753 7.57644 4.52365 7.59725 4.54454C8.67945 5.58934 9.75992 6.63589 10.8491 7.67372C10.9046 7.7277 11.0364 7.74163 11.1179 7.72074C11.5601 7.60407 11.9989 7.46999 12.4377 7.34113C12.7672 7.24535 13.0984 7.14958 13.4488 7.04684ZM9.9108 8.07771C9.80674 7.98716 9.7443 7.9384 9.68707 7.88442C8.72801 6.96152 7.75854 6.0508 6.82028 5.10874C6.54453 4.83187 6.3156 4.76395 5.9462 4.89281C5.29584 5.12093 4.62467 5.28984 3.87545 5.5075C3.99859 5.59631 4.07663 5.63984 4.13733 5.69905C5.11894 6.64285 6.10749 7.58143 7.07176 8.54091C7.29375 8.76206 7.47585 8.80733 7.76721 8.71156C8.45746 8.48518 9.15985 8.29712 9.9108 8.07771ZM9.27951 14.895C9.37143 14.9003 9.43907 14.9072 9.50671 14.9072C10.2247 14.9072 10.9427 14.902 11.6624 14.9124C11.8255 14.9142 11.9139 14.8619 11.9954 14.7192C12.5764 13.6935 13.1678 12.6748 13.7557 11.6527C13.7939 11.5865 13.8268 11.5168 13.8737 11.4263C13.78 11.4211 13.7124 11.4124 13.6447 11.4124C12.9267 11.4106 12.2087 11.4158 11.489 11.4089C11.3277 11.4071 11.2375 11.4576 11.156 11.6004C10.5716 12.633 9.9767 13.6604 9.38704 14.6878C9.35236 14.7488 9.32287 14.8114 9.27951 14.895ZM17.5816 11.4367C17.54 11.4263 17.5174 11.4141 17.4966 11.4141C16.7058 11.4124 15.9149 11.4089 15.1241 11.4193C15.0478 11.4211 14.9437 11.5029 14.9004 11.5761C14.2899 12.6226 13.6864 13.6744 13.0828 14.7261C13.0533 14.7766 13.036 14.8323 13.0013 14.909C13.8147 14.909 14.5969 14.9037 15.379 14.9124C15.5421 14.9142 15.6322 14.8619 15.712 14.7209C16.2982 13.6865 16.8931 12.6574 17.4845 11.6283C17.5191 11.5673 17.5469 11.5047 17.5816 11.4367ZM10.1588 11.4124C10.0495 11.4124 9.97323 11.4124 9.89519 11.4124C9.1928 11.4124 8.48868 11.4176 7.78629 11.4089C7.61633 11.4071 7.5192 11.4559 7.43249 11.6091C6.8515 12.6348 6.26011 13.6552 5.67218 14.6774C5.63403 14.7435 5.60281 14.8132 5.55425 14.909C5.6531 14.909 5.72247 14.909 5.79011 14.909C6.50811 14.909 7.22784 14.9037 7.94584 14.9124C8.11233 14.9142 8.19558 14.8567 8.27536 14.7157C8.85635 13.69 9.44774 12.6696 10.0339 11.6474C10.0756 11.5813 10.1085 11.5116 10.1588 11.4124Z" fill="#273BE2"/>
<path id="Vector_2" d="M11.4441 24.9999C11.399 24.9686 11.354 24.939 11.3106 24.9076C11.1302 24.7753 11.0661 24.5942 11.132 24.3852C11.1961 24.1745 11.3574 24.0544 11.5742 24.0561C11.7893 24.0579 11.9505 24.1693 12.0164 24.3835C12.0858 24.6081 12.013 24.7875 11.8222 24.9181C11.7771 24.9494 11.7268 24.9738 11.68 24.9999C11.602 24.9999 11.5222 24.9999 11.4441 24.9999Z" fill="#273BE2"/>
<path id="Vector_3" d="M9.73738 19.8803C9.73738 19.1264 9.73565 18.3724 9.73738 17.6184C9.73912 17.082 10.0929 16.8748 10.556 17.143C11.8775 17.9057 13.1973 18.6701 14.5171 19.438C14.9663 19.6992 14.9715 20.1172 14.5275 20.3749C13.1956 21.1498 11.8619 21.9229 10.5248 22.6926C10.1016 22.9364 9.73912 22.7274 9.73738 22.2381C9.73391 21.451 9.73738 20.6657 9.73738 19.8803ZM13.4332 19.9082C12.4984 19.3667 11.6087 18.8512 10.7034 18.3271C10.7034 19.3945 10.7034 20.4271 10.7034 21.4893C11.6156 20.96 12.5036 20.4463 13.4332 19.9082Z" fill="#273BE2"/>
</g>
</svg>
