<svg width="25" height="23" viewBox="0 0 25 23" fill="none" xmlns="http://www.w3.org/2000/svg">
<g id="Frame" clip-path="url(#clip0_3204_12117)">
<g id="Group">
<path id="Vector" d="M9.66693 7.03049C7.71499 7.03049 5.76305 7.03049 3.77857 7.03049C3.77857 7.14453 3.77857 7.24764 3.77857 7.34955C3.77857 9.60604 3.77857 11.8637 3.77857 14.1202C3.77857 14.4915 3.66411 14.6686 3.42313 14.6722C3.17974 14.6759 3.05684 14.4963 3.05684 14.1311C3.05684 11.6975 3.05563 9.26271 3.05684 6.8291C3.05684 6.38144 3.1472 6.29046 3.59302 6.29046C6.4402 6.29046 9.28739 6.29046 12.1358 6.29046C12.231 6.29046 12.3261 6.29046 12.4141 6.29046C12.4262 6.0454 12.4382 5.81975 12.4503 5.56498C12.378 5.56498 12.2912 5.56498 12.2057 5.56498C9.18135 5.56498 6.15825 5.56498 3.13395 5.56498C2.51945 5.56498 2.3351 5.75302 2.3351 6.3778C2.3351 10.4322 2.3351 14.4866 2.33631 18.541C2.33631 19.1573 2.52427 19.3429 3.14479 19.3429C9.26449 19.3429 15.3842 19.3429 21.5051 19.3429C22.122 19.3429 22.3088 19.1549 22.3088 18.5349C22.3088 15.4001 22.3088 12.2641 22.3088 9.12926C22.3088 9.02493 22.3064 8.91817 22.3268 8.81627C22.3654 8.6355 22.4919 8.53966 22.6726 8.54209C22.8522 8.54452 22.9763 8.64278 23.0124 8.82355C23.0293 8.90968 23.0293 8.99945 23.0293 9.08802C23.0305 12.2471 23.0317 15.4074 23.0269 18.5665C23.0269 18.8127 22.9775 19.0578 22.9462 19.3502C23.0522 19.3502 23.1908 19.3502 23.3281 19.3502C23.5281 19.3502 23.7305 19.3623 23.9294 19.3478C24.2643 19.3223 24.5029 19.4497 24.6427 19.759C24.6427 20.2261 24.6427 20.6944 24.6427 21.1614C24.6318 21.1724 24.6149 21.1821 24.6113 21.1954C24.3125 22.1198 23.8028 22.4923 22.8317 22.4935C21.9654 22.4947 21.099 22.4935 20.2327 22.4935C20.1604 22.4935 20.0881 22.4947 20.017 22.485C19.7977 22.4559 19.6748 22.3212 19.6797 22.1186C19.6833 21.916 19.8122 21.7886 20.0339 21.7704C20.1062 21.7644 20.1785 21.768 20.2508 21.768C21.1412 21.768 22.0316 21.7717 22.9209 21.7668C23.4606 21.7632 23.8378 21.4926 23.8992 21.028C23.939 20.7223 23.9065 20.4056 23.9065 20.0902C20.9014 20.0902 17.9133 20.0902 14.9215 20.0902C14.9119 20.1339 14.901 20.163 14.8986 20.1945C14.8311 20.9443 14.5179 21.2354 13.7684 21.2367C13.2154 21.2379 12.6611 21.2391 12.1081 21.2367C11.6032 21.2342 11.0971 21.2476 10.5935 21.2185C10.1284 21.1918 9.80188 20.8387 9.75368 20.3717C9.74404 20.2795 9.73681 20.1861 9.72838 20.0914C6.71612 20.0914 3.72917 20.0914 0.728966 20.0914C0.728966 20.4032 0.706073 20.7016 0.73499 20.9964C0.772342 21.3956 1.09767 21.7025 1.49649 21.751C1.63144 21.768 1.7688 21.768 1.90495 21.768C7.34267 21.7692 12.7792 21.7692 18.2169 21.7692C18.3205 21.7692 18.4266 21.7644 18.529 21.7789C18.7109 21.8044 18.8158 21.9185 18.8266 22.1029C18.8374 22.297 18.7471 22.4328 18.5543 22.4717C18.4374 22.4947 18.3157 22.4923 18.1952 22.4923C12.7575 22.4935 7.32099 22.4935 1.88326 22.4923C1.74711 22.4923 1.60975 22.4911 1.4748 22.4765C0.785596 22.4013 0.327733 22.0276 0.085548 21.3786C0.0578353 21.3046 0.0289176 21.2318 0 21.159C0 20.6919 0 20.2237 0 19.7566C0.139769 19.4484 0.377134 19.3271 0.713302 19.3441C1.04586 19.3623 1.38082 19.3478 1.67722 19.3478C1.65433 18.9559 1.61577 18.5907 1.61577 18.2256C1.61095 14.2597 1.61216 10.2939 1.61216 6.32928C1.61216 5.57226 1.94953 5.06273 2.57849 4.89289C2.74597 4.848 2.92671 4.84072 3.10142 4.84072C6.3655 4.8383 9.63078 4.8383 12.8949 4.8383C12.9985 4.8383 13.1009 4.8383 13.2371 4.8383C13.2371 4.58111 13.2455 4.34211 13.231 4.10555C13.2274 4.04731 13.1599 3.98666 13.1093 3.93813C12.9599 3.79255 12.7973 3.66031 12.6527 3.50867C12.3816 3.226 12.3298 2.87418 12.5069 2.52964C12.6177 2.31491 12.737 2.10504 12.8684 1.90244C13.0684 1.59187 13.4081 1.46449 13.7684 1.55305C13.9166 1.58944 14.0721 1.61492 14.2058 1.68164C14.442 1.80053 14.6311 1.74715 14.854 1.62584C15.1227 1.47904 15.2962 1.30799 15.3083 0.986498C15.3131 0.860329 15.3613 0.735373 15.3986 0.61163C15.5107 0.239188 15.7842 0.0208187 16.1746 0.00383436C16.4072 -0.00587096 16.6397 -0.00708413 16.8722 0.00383436C17.2675 0.0220318 17.5458 0.252533 17.6542 0.63832C17.6868 0.754784 17.7362 0.873674 17.735 0.990138C17.7277 1.48268 18.141 1.57246 18.4519 1.75443C18.5013 1.78355 18.5916 1.75565 18.6579 1.73745C18.8579 1.68164 19.0543 1.61007 19.2555 1.55669C19.6315 1.45721 19.964 1.58095 20.1749 1.90608C20.3062 2.10746 20.4279 2.31734 20.5376 2.53207C20.7087 2.8669 20.6544 3.2163 20.4002 3.4929C20.3243 3.57539 20.252 3.67123 20.1568 3.72583C19.7062 3.9818 19.7773 4.39428 19.811 4.82253C19.9062 4.82738 19.9917 4.83345 20.0773 4.83466C20.6062 4.83587 21.1364 4.83102 21.6653 4.83708C22.4558 4.84558 22.9968 5.37209 23.0245 6.16307C23.0377 6.53309 23.0317 6.90432 23.0269 7.27555C23.0233 7.56549 22.8895 7.71835 22.6594 7.7135C22.4329 7.70865 22.31 7.55579 22.3076 7.25978C22.3039 6.9213 22.3112 6.58283 22.3051 6.24436C22.2967 5.78214 22.0786 5.56741 21.6196 5.56256C21.2762 5.55892 20.9316 5.56134 20.5894 5.56134C20.6038 5.80398 20.6183 6.02841 20.6339 6.28682C20.7858 6.28682 20.9593 6.28439 21.1328 6.28682C21.4653 6.29167 21.5822 6.40328 21.5834 6.73933C21.587 7.54487 21.5846 8.35162 21.5846 9.15717C21.5846 12.1149 21.5846 15.0738 21.5858 18.0315C21.5858 18.5337 21.5087 18.6126 21.0195 18.6126C15.2203 18.6126 9.42113 18.6126 3.62194 18.6126C3.13756 18.6126 3.05804 18.5337 3.05684 18.0545C3.05684 17.3618 3.05804 16.6679 3.05563 15.9752C3.05563 15.7968 3.08455 15.6355 3.26287 15.5481C3.5147 15.4256 3.76893 15.6027 3.77375 15.9218C3.78219 16.4289 3.77616 16.9372 3.77737 17.4455C3.77737 17.5814 3.77737 17.716 3.77737 17.8701C9.47535 17.8701 15.1492 17.8701 20.8424 17.8701C20.8424 14.261 20.8424 10.6554 20.8424 7.01957C20.5339 7.03898 20.2255 6.91524 19.952 7.20154C19.7893 7.3726 19.5387 7.40536 19.2977 7.33984C19.1664 7.30466 19.0302 7.27919 18.9061 7.22581C18.6495 7.11662 18.4266 7.10206 18.1663 7.26827C17.9265 7.42234 17.7675 7.57156 17.735 7.87242C17.7121 8.09079 17.6422 8.32129 17.5289 8.50812C17.1915 9.06497 15.8408 9.06982 15.5131 8.50812C15.3758 8.27277 15.3239 7.9804 15.2685 7.70743C15.236 7.54851 15.1794 7.44175 15.036 7.37381C14.942 7.32893 14.8468 7.28161 14.7649 7.21853C14.6143 7.10328 14.4685 7.10206 14.295 7.17243C14.1178 7.24522 13.9287 7.28768 13.7431 7.33863C13.4925 7.40778 13.2431 7.36411 13.0684 7.18699C12.8961 7.01229 12.7105 7.00501 12.5021 7.00986C12.3515 7.0135 12.2008 7.01108 12.0514 7.01108L9.66693 7.03049ZM19.9231 2.91786C19.858 2.79897 19.799 2.68614 19.7327 2.57574C19.4917 2.17419 19.5845 2.17176 19.1519 2.35252C18.6181 2.57574 18.1591 2.51751 17.7121 2.17783C17.6735 2.14871 17.6301 2.12566 17.588 2.10382C17.2843 1.95096 17.1168 1.70712 17.0759 1.36622C17.0566 1.20729 17.0265 1.04473 16.9674 0.897937C16.9373 0.823934 16.8301 0.732947 16.759 0.73416C15.983 0.743865 16.1348 0.578875 15.977 1.35287C15.9059 1.70227 15.7481 1.96431 15.4276 2.12323C15.3348 2.16933 15.2408 2.21907 15.1565 2.27973C14.7974 2.53814 14.4335 2.53935 14.0202 2.39256C13.3949 2.17176 13.5841 2.16084 13.2527 2.66309C13.1105 2.87782 13.1298 3.02704 13.3371 3.16049C13.8708 3.50382 14.0516 4 13.9636 4.61386C13.9612 4.62963 13.9624 4.64662 13.9636 4.66239C13.9925 5.01178 13.8636 5.28838 13.5877 5.50311C13.4612 5.60138 13.3347 5.70692 13.2358 5.83067C13.1864 5.89254 13.1575 6.03205 13.1937 6.09271C13.5961 6.76723 13.3575 6.70536 14.1166 6.47001C14.1552 6.45787 14.1925 6.44453 14.2311 6.43118C14.7432 6.26498 15.7589 6.78543 15.9204 7.30102C15.9493 7.39322 15.9601 7.49028 15.9806 7.58369C16.0119 7.72563 16.03 7.87121 16.0818 8.00466C16.1071 8.06896 16.1903 8.1466 16.2553 8.15388C16.9084 8.23759 16.9409 8.2109 17.0698 7.56792C17.0807 7.51211 17.0759 7.45024 17.1 7.40172C17.1723 7.2525 17.2193 7.05718 17.3397 6.96862C17.8699 6.58404 18.3832 6.17763 19.1314 6.52217C19.576 6.7272 19.4905 6.73084 19.7447 6.28924C19.9725 5.89496 19.9893 6.00536 19.6507 5.66325C19.4772 5.48855 19.2652 5.3272 19.1604 5.1149C18.8832 4.55442 19.0905 3.71005 19.5592 3.29879C19.6556 3.21387 19.7483 3.1241 19.8399 3.03432C19.8688 3.00521 19.8917 2.96274 19.9231 2.91786ZM10.4911 20.0841C10.4525 20.4311 10.5055 20.5051 10.7983 20.5063C11.8153 20.51 12.8334 20.51 13.8503 20.5063C14.1455 20.5051 14.2203 20.385 14.1263 20.0841C12.9214 20.0841 11.7141 20.0841 10.4911 20.0841Z" fill="#213CE7"/>
<path id="Vector_2" d="M16.51 2.47661C17.5968 2.46933 18.4788 3.33674 18.4872 4.42131C18.4956 5.52529 17.6305 6.40969 16.5353 6.41575C15.4436 6.42182 14.552 5.53621 14.5508 4.44679C14.5508 3.36707 15.4292 2.48389 16.51 2.47661ZM16.5304 4.83985C16.8594 4.83985 17.1883 4.83257 17.516 4.84349C17.6642 4.84835 17.739 4.79982 17.7558 4.6506C17.8125 4.13379 17.6474 3.71282 17.2184 3.41317C16.8076 3.12686 16.2533 3.12322 15.8376 3.40953C15.4099 3.70433 15.2291 4.11681 15.2918 4.63968C15.3099 4.7889 15.3653 4.84713 15.5195 4.84349C15.8569 4.83257 16.1943 4.83864 16.5304 4.83985ZM16.9293 5.64297C16.9293 5.62598 16.9293 5.61021 16.9293 5.59323C16.6642 5.59323 16.4003 5.59323 16.1352 5.59323C16.1352 5.61021 16.1352 5.62598 16.1352 5.64297C16.4003 5.64297 16.6642 5.64297 16.9293 5.64297Z" fill="#213CE7"/>
</g>
</g>
<defs>
<clipPath id="clip0_3204_12117">
<rect width="24.6427" height="22.4945" fill="white"/>
</clipPath>
</defs>
</svg>
