<svg width="25" height="23" viewBox="0 0 25 23" fill="none" xmlns="http://www.w3.org/2000/svg">
<g id="Frame" clip-path="url(#clip0_90_634)">
<g id="Group">
<path id="Vector" d="M9.66693 7.0322C7.71499 7.0322 5.76305 7.0322 3.77857 7.0322C3.77857 7.14623 3.77857 7.24935 3.77857 7.35126C3.77857 9.60775 3.77857 11.8654 3.77857 14.1219C3.77857 14.4932 3.66411 14.6703 3.42313 14.6739C3.17974 14.6776 3.05684 14.498 3.05684 14.1329C3.05684 11.6992 3.05563 9.26442 3.05684 6.83081C3.05684 6.38315 3.1472 6.29217 3.59302 6.29217C6.4402 6.29217 9.28739 6.29217 12.1358 6.29217C12.231 6.29217 12.3261 6.29217 12.4141 6.29217C12.4262 6.04711 12.4382 5.82146 12.4503 5.56669C12.378 5.56669 12.2912 5.56669 12.2057 5.56669C9.18135 5.56669 6.15825 5.56669 3.13395 5.56669C2.51945 5.56669 2.3351 5.75473 2.3351 6.37951C2.3351 10.4339 2.3351 14.4883 2.33631 18.5427C2.33631 19.159 2.52427 19.3446 3.14479 19.3446C9.26449 19.3446 15.3842 19.3446 21.5051 19.3446C22.122 19.3446 22.3088 19.1566 22.3088 18.5366C22.3088 15.4018 22.3088 12.2658 22.3088 9.13097C22.3088 9.02664 22.3064 8.91988 22.3268 8.81798C22.3654 8.63721 22.4919 8.54137 22.6726 8.5438C22.8522 8.54623 22.9763 8.64449 23.0124 8.82525C23.0293 8.91139 23.0293 9.00116 23.0293 9.08973C23.0305 12.2488 23.0317 15.4091 23.0269 18.5682C23.0269 18.8145 22.9775 19.0595 22.9462 19.3519C23.0522 19.3519 23.1908 19.3519 23.3281 19.3519C23.5281 19.3519 23.7305 19.364 23.9294 19.3495C24.2643 19.324 24.5029 19.4514 24.6427 19.7607C24.6427 20.2278 24.6427 20.6961 24.6427 21.1631C24.6318 21.1741 24.6149 21.1838 24.6113 21.1971C24.3125 22.1215 23.8028 22.494 22.8317 22.4952C21.9654 22.4964 21.099 22.4952 20.2327 22.4952C20.1604 22.4952 20.0881 22.4964 20.017 22.4867C19.7977 22.4576 19.6748 22.3229 19.6797 22.1203C19.6833 21.9177 19.8122 21.7904 20.0339 21.7722C20.1062 21.7661 20.1785 21.7697 20.2508 21.7697C21.1412 21.7697 22.0316 21.7734 22.9209 21.7685C23.4606 21.7649 23.8378 21.4943 23.8992 21.0297C23.939 20.724 23.9065 20.4073 23.9065 20.0919C20.9014 20.0919 17.9133 20.0919 14.9215 20.0919C14.9119 20.1356 14.901 20.1647 14.8986 20.1963C14.8311 20.946 14.5179 21.2372 13.7684 21.2384C13.2154 21.2396 12.6611 21.2408 12.1081 21.2384C11.6032 21.2359 11.0971 21.2493 10.5935 21.2202C10.1284 21.1935 9.80188 20.8404 9.75368 20.3734C9.74404 20.2812 9.73681 20.1878 9.72838 20.0931C6.71612 20.0931 3.72917 20.0931 0.728966 20.0931C0.728966 20.4049 0.706073 20.7034 0.73499 20.9982C0.772342 21.3973 1.09767 21.7042 1.49649 21.7527C1.63144 21.7697 1.7688 21.7697 1.90495 21.7697C7.34267 21.7709 12.7792 21.7709 18.2169 21.7709C18.3205 21.7709 18.4266 21.7661 18.529 21.7806C18.7109 21.8061 18.8158 21.9202 18.8266 22.1046C18.8374 22.2987 18.7471 22.4345 18.5543 22.4734C18.4374 22.4964 18.3157 22.494 18.1952 22.494C12.7575 22.4952 7.32099 22.4952 1.88326 22.494C1.74711 22.494 1.60975 22.4928 1.4748 22.4782C0.785596 22.403 0.327733 22.0293 0.085548 21.3803C0.0578353 21.3063 0.0289176 21.2335 0 21.1607C0 20.6936 0 20.2254 0 19.7583C0.139769 19.4502 0.377134 19.3288 0.713302 19.3458C1.04586 19.364 1.38082 19.3495 1.67722 19.3495C1.65433 18.9576 1.61577 18.5924 1.61577 18.2273C1.61095 14.2614 1.61216 10.2956 1.61216 6.33099C1.61216 5.57397 1.94953 5.06444 2.57849 4.8946C2.74597 4.84971 2.92671 4.84243 3.10142 4.84243C6.3655 4.84001 9.63078 4.84001 12.8949 4.84001C12.9985 4.84001 13.1009 4.84001 13.2371 4.84001C13.2371 4.58282 13.2455 4.34382 13.231 4.10726C13.2274 4.04902 13.1599 3.98837 13.1093 3.93984C12.9599 3.79426 12.7973 3.66202 12.6527 3.51038C12.3816 3.22771 12.3298 2.87589 12.5069 2.53135C12.6177 2.31662 12.737 2.10675 12.8684 1.90415C13.0684 1.59358 13.4081 1.46619 13.7684 1.55476C13.9166 1.59115 14.0721 1.61663 14.2058 1.68335C14.442 1.80224 14.6311 1.74886 14.854 1.62755C15.1227 1.48075 15.2962 1.3097 15.3083 0.988208C15.3131 0.862038 15.3613 0.737082 15.3986 0.61334C15.5107 0.240898 15.7842 0.0225281 16.1746 0.00554382C16.4072 -0.0041615 16.6397 -0.00537467 16.8722 0.00554382C17.2675 0.0237413 17.5458 0.254243 17.6542 0.640029C17.6868 0.756493 17.7362 0.875383 17.735 0.991847C17.7277 1.48439 18.141 1.57417 18.4519 1.75614C18.5013 1.78526 18.5916 1.75735 18.6579 1.73916C18.8579 1.68335 19.0543 1.61177 19.2555 1.5584C19.6315 1.45892 19.964 1.58266 20.1749 1.90779C20.3062 2.10917 20.4279 2.31905 20.5376 2.53378C20.7087 2.86861 20.6544 3.21801 20.4002 3.49461C20.3243 3.5771 20.252 3.67294 20.1568 3.72753C19.7062 3.98351 19.7773 4.39599 19.811 4.82424C19.9062 4.82909 19.9917 4.83515 20.0773 4.83637C20.6062 4.83758 21.1364 4.83273 21.6653 4.83879C22.4558 4.84729 22.9968 5.3738 23.0245 6.16478C23.0377 6.5348 23.0317 6.90603 23.0269 7.27726C23.0233 7.5672 22.8895 7.72006 22.6594 7.71521C22.4329 7.71036 22.31 7.5575 22.3076 7.26149C22.3039 6.92301 22.3112 6.58454 22.3051 6.24607C22.2967 5.78385 22.0786 5.56912 21.6196 5.56427C21.2762 5.56063 20.9316 5.56305 20.5894 5.56305C20.6038 5.80569 20.6183 6.03012 20.6339 6.28853C20.7858 6.28853 20.9593 6.2861 21.1328 6.28853C21.4653 6.29338 21.5822 6.40499 21.5834 6.74104C21.587 7.54658 21.5846 8.35333 21.5846 9.15887C21.5846 12.1166 21.5846 15.0755 21.5858 18.0332C21.5858 18.5354 21.5087 18.6143 21.0195 18.6143C15.2203 18.6143 9.42113 18.6143 3.62194 18.6143C3.13756 18.6143 3.05804 18.5354 3.05684 18.0562C3.05684 17.3635 3.05804 16.6696 3.05563 15.9769C3.05563 15.7985 3.08455 15.6372 3.26287 15.5498C3.5147 15.4273 3.76893 15.6044 3.77375 15.9235C3.78219 16.4306 3.77616 16.9389 3.77737 17.4472C3.77737 17.5831 3.77737 17.7178 3.77737 17.8718C9.47535 17.8718 15.1492 17.8718 20.8424 17.8718C20.8424 14.2627 20.8424 10.6571 20.8424 7.02128C20.5339 7.04069 20.2255 6.91695 19.952 7.20325C19.7893 7.37431 19.5387 7.40706 19.2977 7.34155C19.1664 7.30637 19.0302 7.2809 18.9061 7.22752C18.6495 7.11833 18.4266 7.10377 18.1663 7.26998C17.9265 7.42405 17.7675 7.57327 17.735 7.87413C17.7121 8.0925 17.6422 8.323 17.5289 8.50983C17.1915 9.06667 15.8408 9.07153 15.5131 8.50983C15.3758 8.27448 15.3239 7.98211 15.2685 7.70914C15.236 7.55022 15.1794 7.44346 15.036 7.37552C14.942 7.33064 14.8468 7.28332 14.7649 7.22024C14.6143 7.10499 14.4685 7.10377 14.295 7.17414C14.1178 7.24693 13.9287 7.28939 13.7431 7.34034C13.4925 7.40949 13.2431 7.36582 13.0684 7.18869C12.8961 7.014 12.7105 7.00672 12.5021 7.01157C12.3515 7.01521 12.2008 7.01279 12.0514 7.01279L9.66693 7.0322ZM19.9231 2.91957C19.858 2.80068 19.799 2.68785 19.7327 2.57745C19.4917 2.1759 19.5845 2.17347 19.1519 2.35423C18.6181 2.57745 18.1591 2.51922 17.7121 2.17954C17.6735 2.15042 17.6301 2.12737 17.588 2.10553C17.2843 1.95267 17.1168 1.70883 17.0759 1.36793C17.0566 1.209 17.0265 1.04644 16.9674 0.899647C16.9373 0.825643 16.8301 0.734656 16.759 0.735869C15.983 0.745575 16.1348 0.580584 15.977 1.35458C15.9059 1.70398 15.7481 1.96602 15.4276 2.12494C15.3348 2.17104 15.2408 2.22078 15.1565 2.28144C14.7974 2.53985 14.4335 2.54106 14.0202 2.39427C13.3949 2.17347 13.5841 2.16255 13.2527 2.6648C13.1105 2.87953 13.1298 3.02875 13.3371 3.1622C13.8708 3.50553 14.0516 4.00171 13.9636 4.61557C13.9612 4.63134 13.9624 4.64833 13.9636 4.6641C13.9925 5.01349 13.8636 5.29009 13.5877 5.50482C13.4612 5.60309 13.3347 5.70863 13.2358 5.83238C13.1864 5.89425 13.1575 6.03376 13.1937 6.09442C13.5961 6.76894 13.3575 6.70707 14.1166 6.47171C14.1552 6.45958 14.1925 6.44624 14.2311 6.43289C14.7432 6.26669 15.7589 6.78714 15.9204 7.30273C15.9493 7.39493 15.9601 7.49199 15.9806 7.5854C16.0119 7.72734 16.03 7.87292 16.0818 8.00637C16.1071 8.07067 16.1903 8.14831 16.2553 8.15559C16.9084 8.2393 16.9409 8.21261 17.0698 7.56963C17.0807 7.51382 17.0759 7.45195 17.1 7.40343C17.1723 7.25421 17.2193 7.05889 17.3397 6.97033C17.8699 6.58575 18.3832 6.17934 19.1314 6.52388C19.576 6.72891 19.4905 6.73254 19.7447 6.29095C19.9725 5.89667 19.9893 6.00707 19.6507 5.66496C19.4772 5.49026 19.2652 5.32891 19.1604 5.11661C18.8832 4.55613 19.0905 3.71176 19.5592 3.3005C19.6556 3.21558 19.7483 3.1258 19.8399 3.03603C19.8688 3.00691 19.8917 2.96445 19.9231 2.91957ZM10.4911 20.0859C10.4525 20.4328 10.5055 20.5068 10.7983 20.508C11.8153 20.5117 12.8334 20.5117 13.8503 20.508C14.1455 20.5068 14.2203 20.3867 14.1263 20.0859C12.9214 20.0859 11.7141 20.0859 10.4911 20.0859Z" fill="#213CE7"/>
<path id="Vector_2" d="M16.5085 2.47728C17.5953 2.47 18.4773 3.33742 18.4857 4.42199C18.4942 5.52597 17.629 6.41036 16.5338 6.41643C15.4421 6.4225 14.5505 5.53689 14.5493 4.44746C14.5493 3.36775 15.4277 2.48456 16.5085 2.47728ZM16.529 4.84053C16.8579 4.84053 17.1868 4.83325 17.5146 4.84417C17.6628 4.84902 17.7375 4.80049 17.7544 4.65127C17.811 4.13447 17.6459 3.7135 17.217 3.41385C16.8061 3.12754 16.2518 3.1239 15.8362 3.41021C15.4084 3.70501 15.2277 4.11748 15.2903 4.64036C15.3084 4.78958 15.3638 4.84781 15.5181 4.84417C15.8554 4.83325 16.1928 4.83932 16.529 4.84053ZM16.9278 5.64364C16.9278 5.62666 16.9278 5.61089 16.9278 5.5939C16.6627 5.5939 16.3988 5.5939 16.1338 5.5939C16.1338 5.61089 16.1338 5.62666 16.1338 5.64364C16.3988 5.64364 16.6627 5.64364 16.9278 5.64364Z" fill="#213CE7"/>
</g>
</g>
<defs>
<clipPath id="clip0_90_634">
<rect width="24.6427" height="22.4945" fill="white"/>
</clipPath>
</defs>
</svg>
