<svg width="26" height="26" viewBox="0 0 26 26" fill="none" xmlns="http://www.w3.org/2000/svg">
<g id="Wizzard icons" opacity="0.95">
<path id="Vector" d="M0 17.2485C0.0638517 16.9718 0.112581 16.6917 0.194916 16.4218C0.749417 14.571 2.44317 13.2956 4.3688 13.277C4.84432 13.2719 5.31985 13.277 5.7937 13.277C5.87099 13.0661 5.77185 12.9581 5.64415 12.8164C5.36354 12.5026 5.03084 12.4301 4.63765 12.4672C4.43097 12.4874 4.21757 12.4824 4.01257 12.452C3.1825 12.3238 2.61624 11.6574 2.61288 10.8087C2.6112 10.5236 2.59439 10.2638 2.41796 10.0057C2.2785 9.80152 2.24321 9.5282 2.15415 9.25995C2.1071 9.25826 2.02477 9.25489 1.94411 9.24983C1.35433 9.21608 0.846875 8.75381 0.813268 8.16669C0.727573 6.65503 0.925849 5.19735 1.65006 3.83415C3.10857 1.08414 6.18353 -0.425842 9.28537 0.105602C12.2965 0.621863 14.7161 3.07494 15.1547 6.09996C15.2521 6.76806 15.2521 7.45304 15.2471 8.12957C15.2421 8.7285 14.7279 9.20934 14.128 9.24814C14.0457 9.2532 13.9633 9.24814 13.8844 9.24814C13.8373 9.44385 13.8104 9.62605 13.7516 9.79645C13.5315 10.4308 12.9367 10.8813 12.2545 10.8475C11.8378 10.8273 11.6512 10.9504 11.5185 11.3503C11.3219 11.9374 10.927 12.4166 10.4397 12.8029C10.2868 12.9244 10.1843 13.0408 10.27 13.2753C10.596 13.2753 10.9455 13.2821 11.2933 13.2736C11.9352 13.2584 12.5603 13.3259 13.1652 13.5537C13.9936 13.8658 14.6741 14.377 15.1917 15.0957C15.2975 15.2425 15.4034 15.2914 15.5815 15.2897C18.3002 15.283 21.0173 15.2847 23.736 15.2847C24.8988 15.2847 25.2869 15.5529 25.6969 16.6428C25.6969 19.2241 25.6969 21.8071 25.6969 24.3884C25.6398 24.5436 25.5961 24.7039 25.5255 24.8507C25.2853 25.3501 24.8568 25.6082 24.3409 25.7465C18.9539 25.7465 13.5668 25.7465 8.17973 25.7465C8.14949 25.733 8.12092 25.7145 8.089 25.7061C7.27909 25.4867 6.82877 24.8996 6.82373 24.0594C6.82373 23.9548 6.82373 23.8502 6.82373 23.7355C6.69434 23.7355 6.60361 23.7355 6.51119 23.7355C5.01572 23.7355 3.52024 23.7406 2.02477 23.7338C1.04347 23.7304 0.268849 23.0978 0.0420077 22.1378C0.0369667 22.1007 0.0151228 22.0652 0 22.0264C0 20.4338 0 18.8411 0 17.2485ZM5.80546 14.0801C5.36858 14.0801 4.92498 14.0784 4.48306 14.0801C2.38604 14.0868 0.806547 15.6727 0.803187 17.7766C0.801506 19.0503 0.801506 20.3241 0.803187 21.5979C0.803187 22.4381 1.29048 22.9307 2.12223 22.9307C3.60258 22.9324 5.08293 22.9307 6.56328 22.9307C6.64393 22.9307 6.72459 22.924 6.80692 22.9189C6.80692 22.2441 6.80692 21.5878 6.80692 20.918C6.6977 20.918 6.60697 20.918 6.51623 20.918C5.43747 20.918 4.35872 20.9197 3.27996 20.9163C2.98759 20.9163 2.80779 20.7527 2.81283 20.508C2.81787 20.2718 2.99095 20.1149 3.26988 20.1149C4.6242 20.1132 5.98021 20.1031 7.33454 20.1217C8.13437 20.1318 8.83169 20.4388 9.41812 20.9855C9.97598 21.5051 10.2936 22.1563 10.4129 22.9105C11.2295 22.9105 12.0344 22.9105 12.8493 22.9105C12.8493 22.8076 12.8493 22.7249 12.8493 22.6405C12.8493 20.7459 12.8476 18.8513 12.8493 16.9583C12.851 16.1147 13.3433 15.5057 14.1599 15.3235C14.2036 15.3134 14.244 15.2914 14.3011 15.2678C14.2389 15.202 14.1969 15.1514 14.1482 15.1058C14.0692 15.0316 13.9869 14.9591 13.9045 14.8882C12.8224 13.9687 11.5319 14.043 10.2448 14.0936C9.88356 15.4045 9.15935 16.0675 8.08227 16.0894C6.95479 16.1131 6.25578 15.4989 5.80546 14.0801ZM13.6525 24.9452C13.7415 24.9452 13.7987 24.9452 13.8558 24.9452C17.2416 24.9452 20.6291 24.9452 24.0149 24.9452C24.5812 24.9452 24.8954 24.6145 24.8954 24.0223C24.8954 21.6924 24.8954 19.3641 24.8954 17.0342C24.8954 16.4016 24.5879 16.0928 23.9578 16.0928C20.8392 16.0928 17.7205 16.0928 14.6019 16.0928C13.9516 16.0928 13.6525 16.3931 13.6525 17.046C13.6525 19.5852 13.6525 22.1243 13.6525 24.6617C13.6525 24.7444 13.6525 24.8271 13.6525 24.9452ZM12.6477 6.87267C12.5233 5.18217 11.7874 3.86789 10.3288 3.03951C8.70567 2.11666 7.05393 2.17402 5.48788 3.18967C4.17556 4.04167 3.51856 5.30195 3.41774 6.83892C3.77901 6.83892 4.11171 6.85073 4.44273 6.83555C4.74687 6.82205 4.96867 6.90809 5.0342 7.24383C6.79012 7.26914 8.28559 6.68708 9.51558 5.4403C9.79619 5.15517 9.9827 5.15348 10.2583 5.43523C10.5792 5.76422 10.9186 6.0814 11.2093 6.4357C11.4715 6.75457 11.7638 6.90978 12.1789 6.84567C12.3166 6.82205 12.4612 6.85917 12.6477 6.87267ZM6.88422 11.6658C6.86909 11.5814 6.85901 11.5325 6.85061 11.4836C6.75819 10.996 6.98167 10.4916 7.40679 10.2334C7.84535 9.96686 8.39649 10.0057 8.78968 10.3279C9.1812 10.6501 9.33074 11.163 9.17279 11.6422C9.01484 12.1196 8.57292 12.4554 8.05539 12.4655C7.58322 12.4756 7.11106 12.4672 6.63889 12.4672C6.66914 12.5313 6.70778 12.5566 6.74811 12.5768C8.6603 13.5132 10.9808 12.1078 11.0363 9.96854C11.0564 9.16547 11.0413 8.36071 11.0396 7.55595C11.0396 7.49184 11.0396 7.40411 11.001 7.36868C10.6111 7.00595 10.2129 6.64996 9.80627 6.28217C8.50067 7.47834 6.87918 8.07221 5.02748 8.04691C5.02748 8.75212 5.00731 9.43035 5.0342 10.1069C5.05436 10.6164 5.23416 11.0888 5.52653 11.5106C5.5719 11.5764 5.66095 11.6523 5.73153 11.6557C6.10623 11.6742 6.48094 11.6658 6.88422 11.6658ZM13.9516 8.44169C14.2675 8.45182 14.4574 8.33034 14.449 8.03003C14.4338 7.40242 14.4439 6.76806 14.3498 6.15226C13.9314 3.42587 11.6865 1.25116 8.93251 0.863122C6.13648 0.466647 3.38246 1.97156 2.20288 4.52081C1.70047 5.60563 1.56437 6.74782 1.60301 7.92543C1.61645 8.33203 1.76936 8.47375 2.17096 8.42819C2.23145 8.2173 2.23817 7.97267 2.35915 7.81071C2.61624 7.46485 2.62128 7.08862 2.61792 6.69552C2.61792 6.59598 2.63976 6.49644 2.64984 6.39521C3.07496 2.58399 7.3379 0.392414 10.6615 2.29718C12.4763 3.33814 13.3904 4.94597 13.4509 7.04138C13.4542 7.17972 13.4559 7.32819 13.5046 7.45304C13.634 7.77359 13.7886 8.08233 13.9516 8.44169ZM12.8375 23.7524C11.0934 23.7524 9.36939 23.7524 7.64876 23.7524C7.52105 24.5301 7.90752 24.9772 8.70231 24.9536C9.98774 24.9165 11.2732 24.9435 12.5603 24.9435C12.6493 24.9435 12.7384 24.9435 12.8392 24.9435C12.8375 24.5352 12.8375 24.1539 12.8375 23.7524ZM6.64225 13.4153C6.57 14.0818 6.6725 14.6604 7.25388 15.0451C7.75461 15.3758 8.28055 15.3808 8.78464 15.0603C9.38283 14.6807 9.49373 14.0936 9.4198 13.4153C8.49227 13.7629 7.57146 13.7646 6.64225 13.4153ZM9.57439 22.9223C9.53238 22.0247 8.47211 20.9686 7.64372 20.9939C7.64372 21.6333 7.64372 22.2728 7.64372 22.9223C8.29567 22.9223 8.93419 22.9223 9.57439 22.9223ZM4.19573 10.0512C4.19573 9.25151 4.19573 8.45519 4.19573 7.64199C4.08651 7.64199 3.98737 7.64199 3.88991 7.64199C3.34045 7.64537 3.01615 7.96761 3.01279 8.51424C3.01111 8.76562 3.00607 9.017 3.01447 9.26838C3.02791 9.67667 3.33037 10.009 3.72692 10.0495C3.87479 10.0647 4.02601 10.0512 4.19573 10.0512ZM11.8562 10.0563C11.9823 10.0563 12.0898 10.058 12.1973 10.0563C12.7115 10.0495 13.0425 9.72053 13.0493 9.20765C13.0526 8.95627 13.0795 8.70151 13.0409 8.45519C13.0106 8.25948 12.935 8.04522 12.8123 7.89338C12.5687 7.59138 12.2125 7.62344 11.8579 7.65549C11.8562 8.45182 11.8562 9.23633 11.8562 10.0563ZM3.43623 10.8458C3.39758 11.4212 3.96384 11.7974 4.63597 11.627C4.53683 11.3739 4.43769 11.1208 4.32847 10.8458C4.03274 10.8458 3.73532 10.8458 3.43623 10.8458ZM8.4301 11.2592C8.42674 11.0432 8.24694 10.8644 8.03187 10.8627C7.81679 10.861 7.63531 11.0399 7.63027 11.2558C7.62523 11.4819 7.81679 11.6709 8.04027 11.6641C8.25703 11.659 8.43346 11.4751 8.4301 11.2592Z" fill="#959DEB"/>
<path id="Vector_2" d="M19.2702 22.5299C18.1596 22.5265 17.2623 21.6223 17.2656 20.5104C17.269 19.4104 18.168 18.5095 19.2618 18.5078C20.3826 18.5061 21.2849 19.4155 21.2799 20.5408C21.2748 21.6357 20.3692 22.5333 19.2702 22.5299ZM19.2686 21.7252C19.9222 21.7302 20.4717 21.192 20.4784 20.5391C20.4851 19.8693 19.9474 19.3176 19.282 19.3143C18.625 19.3109 18.0806 19.8457 18.0722 20.5003C18.0621 21.1684 18.5998 21.7201 19.2686 21.7252Z" fill="#959DEB"/>
</g>
</svg>
