<svg width="25" height="25" viewBox="0 0 25 25" fill="none" xmlns="http://www.w3.org/2000/svg">
<g id="Wizzard icons" opacity="0.95">
<path id="Vector" d="M24.3355 16.1671C24.3355 16.4683 24.3355 16.771 24.3355 17.0721C24.3214 17.1257 24.301 17.1778 24.2916 17.2314C23.9634 19.1045 22.8956 20.3344 21.0818 20.8878C20.7081 21.0013 20.3076 21.0297 19.8899 21.1022C19.8899 21.3435 19.8962 21.6036 19.8883 21.8638C19.8554 23.2008 18.9226 24.1311 17.5894 24.1327C14.0561 24.139 10.5244 24.139 6.99115 24.1327C5.65165 24.1311 4.70788 23.1709 4.7016 21.8307C4.70003 21.5784 4.7016 21.3261 4.7016 21.0644C4.62465 21.0596 4.57126 21.0549 4.51787 21.0549C2.41361 21.088 0.601442 19.6769 0.114636 17.6287C0.070667 17.4442 0.0376881 17.2582 0 17.0721C0 16.771 0 16.4683 0 16.1671C0.0141331 16.123 0.0361209 16.0788 0.0424022 16.0331C0.312501 14.078 1.80903 12.5454 3.7484 12.2537C4.05776 12.2064 4.37339 12.2032 4.6906 12.1796C4.6906 11.9352 4.6906 11.6987 4.6906 11.4527C4.45348 11.4291 4.22421 11.4212 3.99965 11.3818C1.48397 10.945 -0.102071 8.69033 0.334483 6.1739C0.436555 5.58894 0.661116 5.04813 0.994027 4.55619C1.11651 4.37487 1.32694 4.3323 1.48868 4.43952C1.64729 4.54516 1.68812 4.73278 1.59075 4.92199C1.56563 4.97087 1.53422 5.01659 1.50439 5.06389C0.0188468 7.49518 1.72266 10.6502 4.56341 10.729C6.25937 10.7763 7.77475 9.66001 8.24428 8.02023C8.71067 6.38833 8.00716 4.61926 6.52476 3.78676C5.26064 3.07566 3.98552 3.1135 2.72925 3.83406C2.47957 3.97754 2.2817 3.95389 2.16864 3.76626C2.054 3.57863 2.11839 3.36735 2.36179 3.23806C2.65387 3.08196 2.94753 2.91326 3.26316 2.82023C3.7217 2.68621 4.19909 2.61683 4.67804 2.5175C4.70631 2.26365 4.70631 1.96723 4.77383 1.68657C5.02194 0.663288 5.90762 0.00737545 7.02413 0.00579874C9.47229 0.00264531 11.9189 0.00422199 14.367 0.00422199C15.4993 0.00422199 16.633 -0.00996851 17.7653 0.0136822C18.888 0.0373329 19.802 0.947096 19.8774 2.07129C19.8883 2.23527 19.8962 2.39925 19.9041 2.56796C19.9794 2.57426 20.0344 2.58057 20.0878 2.58215C22.0805 2.66414 23.7435 4.03745 24.2146 5.98942C24.2586 6.17232 24.2947 6.35837 24.334 6.54285C24.334 6.844 24.334 7.14673 24.334 7.44788C24.3198 7.49991 24.2979 7.55195 24.29 7.60555C24.0231 9.45346 22.7071 10.8962 20.8855 11.3187C20.5652 11.3928 20.2338 11.418 19.9025 11.4669C19.9025 11.7034 19.9025 11.9384 19.9025 12.1843C19.9779 12.1922 20.0391 12.2017 20.1003 12.2032C22.1025 12.2994 23.7687 13.6838 24.2225 15.6358C24.2649 15.8123 24.2979 15.9905 24.3355 16.1671ZM8.46727 2.11859C8.1642 2.11859 7.8784 2.11859 7.59416 2.11859C6.82156 2.11859 6.81056 2.13278 6.80742 2.90064C6.80585 3.05989 6.85139 3.15449 6.99272 3.24279C9.79107 4.98979 9.78478 9.02933 6.98173 10.7732C6.84668 10.8567 6.80585 10.9466 6.80899 11.0964C6.81685 11.6199 6.81842 12.1449 6.80899 12.6684C6.80585 12.8387 6.86552 12.9348 7.00214 13.0373C8.15948 13.9014 8.79861 15.0587 8.83159 16.5061C8.86771 18.0576 8.22544 19.3 6.98173 20.2256C6.86081 20.3154 6.80428 20.4022 6.80899 20.5567C6.81999 20.8894 6.81056 21.2236 6.8137 21.5563C6.81685 21.8937 6.93933 22.0183 7.27381 22.0199C7.81244 22.023 8.35107 22.0199 8.88969 22.0199C11.6865 22.0199 14.4817 22.0199 17.2784 22.0199C17.6632 22.0199 17.7762 21.9063 17.7778 21.5264C17.7794 21.2488 17.77 20.9698 17.781 20.6923C17.7872 20.5441 17.7291 20.4684 17.6082 20.3927C16.7445 19.8566 16.1274 19.1124 15.7741 18.1553C15.4569 17.2976 15.4129 16.4225 15.6343 15.5348C15.6783 15.3614 15.7866 15.2305 15.9625 15.2573C16.0834 15.2763 16.2247 15.3661 16.2907 15.467C16.3441 15.5475 16.2985 15.6941 16.2938 15.8108C16.2781 16.268 16.1886 16.7363 16.2593 17.1794C16.5105 18.7356 17.4213 19.7794 18.9304 20.1988C20.4631 20.6245 21.8026 20.1846 22.7998 18.9437C23.7844 17.7186 23.9163 16.3327 23.2112 14.9262C22.0115 12.5375 18.7797 12.1938 17.0555 14.2467C16.8372 14.5052 16.6597 14.5557 16.4744 14.4091C16.2891 14.2624 16.2828 14.0259 16.5215 13.7926C16.8654 13.4567 17.236 13.1461 17.6114 12.845C17.7228 12.7567 17.7794 12.6857 17.7762 12.5407C17.7684 12.0566 17.7668 11.5726 17.7762 11.0885C17.7794 10.9356 17.7338 10.8504 17.6019 10.7669C14.7863 9.00725 14.7957 4.97875 17.6145 3.22229C17.6663 3.18918 17.7558 3.14661 17.7558 3.10877C17.7527 2.83442 17.748 2.5585 17.7071 2.28888C17.6962 2.22266 17.5533 2.13121 17.4685 2.12805C17.0209 2.11229 16.5718 2.12017 16.1274 2.12017C15.9672 2.82181 15.6688 3.12296 15.0972 3.12454C13.2285 3.13084 11.3583 3.12927 9.48956 3.12454C9.01689 3.12296 8.651 2.84388 8.52695 2.41817C8.50182 2.33618 8.49083 2.24158 8.46727 2.11859ZM23.6258 6.99694C23.6226 4.93933 21.9533 3.2759 19.9009 3.28536C17.8438 3.29482 16.1981 4.95825 16.2028 7.02375C16.2075 9.06401 17.8767 10.7306 19.915 10.729C21.9643 10.729 23.6289 9.05298 23.6258 6.99694ZM4.40952 12.9033C2.35394 12.9128 0.703514 14.5762 0.708225 16.6385C0.712936 18.6898 2.38849 20.3596 4.43621 20.3517C6.52005 20.3438 8.14064 18.6962 8.12965 16.5975C8.11866 14.5557 6.44625 12.8954 4.40952 12.9033ZM19.1676 2.62787C19.3309 1.44849 18.5206 0.694822 17.5109 0.701129C14.02 0.72478 10.5291 0.709013 7.03669 0.710589C5.93902 0.710589 5.24493 1.54152 5.4318 2.63418C5.64694 2.68621 5.86679 2.73824 6.11019 2.79658C6.11019 2.66729 6.10705 2.57269 6.11019 2.47808C6.13375 1.88051 6.52162 1.45322 7.11678 1.42011C7.5659 1.39488 8.01972 1.39961 8.47041 1.41853C8.87713 1.43588 9.12367 1.68342 9.18335 2.08233C9.22418 2.3551 9.30112 2.43236 9.56494 2.43394C11.385 2.43551 13.2066 2.43551 15.0281 2.43551C15.2511 2.43551 15.3783 2.34249 15.4035 2.10283C15.4459 1.68657 15.7238 1.42799 16.1447 1.41538C16.5718 1.40277 17.0005 1.39961 17.4276 1.41696C18.0605 1.44376 18.475 1.88997 18.4845 2.53012C18.486 2.61526 18.4845 2.7004 18.4845 2.80289C18.731 2.73824 18.9524 2.68148 19.1676 2.62787ZM18.4829 20.8294C18.4829 21.0801 18.4829 21.3025 18.4829 21.5232C18.4813 22.3005 18.0558 22.7278 17.2737 22.7278C13.9556 22.7294 10.6359 22.7294 7.31778 22.7278C6.53104 22.7278 6.11333 22.31 6.11019 21.5248C6.10862 21.2678 6.11019 21.0092 6.11019 20.7301C5.8558 20.8121 5.64066 20.8799 5.42238 20.9493C5.42238 21.3529 5.38627 21.7534 5.43024 22.1428C5.5166 22.906 6.18714 23.4263 7.03512 23.4263C10.5354 23.4279 14.0373 23.4263 17.5376 23.4263C17.6161 23.4263 17.6962 23.4247 17.7747 23.4184C18.4232 23.368 18.987 22.9344 19.1173 22.2942C19.2037 21.8748 19.1833 21.4333 19.21 21.0092C18.9446 20.9445 18.731 20.8925 18.4829 20.8294ZM5.41767 11.3802C5.41767 11.6908 5.41767 11.9888 5.41767 12.2994C5.64223 12.3688 5.86208 12.4366 6.08506 12.506C6.08506 12.0566 6.08506 11.6372 6.08506 11.2115C5.85423 11.2714 5.64851 11.3219 5.41767 11.3802ZM19.1723 12.2474C19.1723 11.9431 19.1723 11.6624 19.1723 11.3818C18.9399 11.3234 18.7216 11.2698 18.5033 11.2146C18.5033 11.623 18.5033 12.0109 18.5033 12.413C18.7373 12.3562 18.9493 12.3026 19.1723 12.2474Z" fill="#959DEB"/>
<path id="Vector_2" d="M4.67294 4.53265C5.12362 4.53265 5.57588 4.5295 6.02657 4.53265C6.6971 4.53896 7.13051 4.96625 7.13366 5.63162C7.13837 6.54454 7.13837 7.45745 7.13366 8.36879C7.13051 9.01367 6.71752 9.46303 6.07996 9.47565C5.13775 9.49457 4.19555 9.49457 3.25335 9.47565C2.62835 9.46303 2.2075 9.01682 2.19965 8.38614C2.18866 7.46534 2.18866 6.54454 2.19965 5.62531C2.2075 4.96152 2.65034 4.53738 3.31773 4.53265C3.76999 4.5295 4.22068 4.53265 4.67294 4.53265ZM4.70277 5.2406C4.25208 5.2406 3.80139 5.23902 3.34914 5.2406C3.02565 5.24217 2.90316 5.36358 2.90316 5.68523C2.90002 6.56503 2.90002 7.44642 2.90316 8.32622C2.90473 8.64472 3.0335 8.77243 3.35385 8.77401C4.23167 8.77716 5.11106 8.77716 5.98888 8.77401C6.30137 8.77243 6.42857 8.6526 6.43014 8.34672C6.43485 7.45115 6.43485 6.554 6.43014 5.65842C6.42857 5.35727 6.3108 5.24375 6.00929 5.24217C5.57274 5.23744 5.13775 5.2406 4.70277 5.2406Z" fill="#959DEB"/>
<path id="Vector_3" d="M12.558 15.2693C11.6346 15.2709 11.0238 15.0833 10.4773 14.697C10.3579 14.6134 10.259 14.6039 10.1318 14.656C9.94808 14.7301 9.7612 14.7916 9.57276 14.8531C9.36705 14.9209 9.18018 14.8799 9.02472 14.7285C8.86925 14.5771 8.82529 14.3911 8.88496 14.183C8.90851 14.0994 8.93992 14.0174 8.96975 13.9354C9.12836 13.486 9.23986 13.0635 9.15035 12.5463C8.79702 10.4761 10.5778 8.63292 12.6569 8.8915C13.965 9.0539 14.8805 9.78865 15.3076 11.0406C15.7332 12.2877 15.4348 13.4056 14.5193 14.3438C13.9195 14.9634 13.1296 15.2725 12.558 15.2693ZM9.65128 14.0174C9.67484 14.0269 9.69996 14.0363 9.72352 14.0458C9.80518 14.0205 9.88998 14.0016 9.96849 13.9669C10.2826 13.825 10.5574 13.8834 10.8338 14.0836C11.6849 14.6954 12.759 14.7222 13.6211 14.1703C14.4926 13.6106 14.9213 12.6125 14.7329 11.5782C14.4989 10.3027 13.2411 9.41182 11.9346 9.59945C10.6704 9.78077 9.66227 10.9948 9.81931 12.2247C9.8994 12.8427 10.0533 13.4419 9.65128 14.0174Z" fill="#959DEB"/>
<path id="Vector_4" d="M22.0852 16.6748C21.9548 16.8435 21.881 17.0185 21.7507 17.0989C20.9451 17.5846 20.1285 18.0544 19.3104 18.5164C18.9555 18.7166 18.5739 18.5022 18.5707 18.097C18.5598 17.1462 18.5598 16.1939 18.5707 15.2416C18.5755 14.849 18.9539 14.6282 19.2947 14.8206C20.1222 15.2857 20.9435 15.7603 21.7554 16.2507C21.8857 16.3295 21.958 16.5061 22.0852 16.6748ZM21.0927 16.6716C20.4661 16.3106 19.8851 15.9747 19.279 15.6247C19.279 16.3405 19.279 17.0091 19.279 17.7202C19.893 17.367 20.474 17.0296 21.0927 16.6716Z" fill="#959DEB"/>
<path id="Vector_5" d="M19.2499 7.25432C19.0662 7.25432 18.9091 7.25747 18.7537 7.25432C18.4898 7.24801 18.3391 7.11714 18.3359 6.89956C18.3344 6.68039 18.4836 6.54953 18.7458 6.5448C18.8966 6.54164 19.0457 6.54007 19.1965 6.53849C19.2028 6.53849 19.2106 6.53218 19.2483 6.51326C19.2483 6.23103 19.2483 5.93303 19.2483 5.63503C19.2499 4.88294 19.677 4.4525 20.4229 4.45092C20.6522 4.45092 20.8815 4.44619 21.1107 4.4525C21.351 4.45881 21.497 4.60071 21.4923 4.81357C21.4892 5.01381 21.3479 5.15256 21.1186 5.16044C20.8736 5.16833 20.6287 5.16044 20.3837 5.1636C20.0869 5.16675 19.9628 5.28658 19.9581 5.57827C19.955 5.89361 19.9565 6.20738 19.9565 6.54795C20.1528 6.54795 20.324 6.54322 20.4967 6.54953C20.7244 6.55741 20.8658 6.69301 20.8689 6.89483C20.872 7.09665 20.7339 7.24013 20.5077 7.25432C20.335 7.26535 20.1623 7.25589 19.9581 7.25589C19.9581 7.36626 19.9581 7.45771 19.9581 7.55074C19.9581 8.16881 19.9597 8.78846 19.9581 9.40653C19.9565 9.69034 19.8293 9.84643 19.6064 9.84801C19.3818 9.84959 19.2515 9.69349 19.2515 9.41126C19.2483 8.70174 19.2499 7.99695 19.2499 7.25432Z" fill="#959DEB"/>
<path id="Vector_6" d="M2.57534 17.5296C1.82315 16.8595 1.67554 16.0522 1.90167 15.1456C2.01159 14.7041 2.43244 14.5875 2.74808 14.9139C3.03231 15.2071 3.35894 15.4105 3.77665 15.4815C3.80021 15.4137 3.82219 15.349 3.84418 15.2828C4.10642 14.4676 5.04863 14.1365 5.74586 14.63C5.90289 14.7404 6.03637 14.7404 6.18555 14.6742C6.42582 14.567 6.6488 14.5749 6.84824 14.753C7.04767 14.9328 7.08065 15.1614 6.99428 15.4058C6.92361 15.606 6.87022 15.822 6.75401 15.9955C6.57971 16.2556 6.47764 16.5363 6.37871 16.8296C5.98769 18.0011 4.99995 18.7468 3.75153 18.832C3.32439 18.8604 2.89726 18.8635 2.48897 18.698C2.25656 18.6034 2.08069 18.4583 2.0163 18.2045C1.93465 17.8923 2.05556 17.681 2.36806 17.5911C2.42773 17.5769 2.48741 17.5564 2.57534 17.5296ZM6.22638 15.4878C5.95157 15.42 5.6752 15.4042 5.45692 15.2812C5.24335 15.1614 5.05805 15.0558 4.82093 15.1567C4.5791 15.2592 4.49901 15.4625 4.48959 15.7117C4.47388 16.1405 4.37966 16.2273 3.96038 16.2131C3.86616 16.2099 3.76566 16.2115 3.67929 16.1815C3.28985 16.0475 2.90354 15.9025 2.50468 15.7558C2.51881 15.893 2.52038 16.0664 2.5565 16.2336C2.66171 16.705 2.98991 16.9841 3.39192 17.2127C3.51283 17.2821 3.63532 17.4208 3.67144 17.5533C3.72169 17.7346 3.5678 17.8497 3.4139 17.9348C3.32282 17.9853 3.23331 18.0421 3.12182 18.1098C4.34354 18.277 5.4051 17.6368 5.73487 16.5363C5.82595 16.232 5.89347 15.9277 6.12274 15.6864C6.18398 15.6218 6.20911 15.5225 6.22638 15.4878Z" fill="#959DEB"/>
<path id="Vector_7" d="M12.283 1.92122C12.0961 1.91649 11.9359 1.75094 11.9375 1.56646C11.9391 1.38356 12.104 1.21801 12.2877 1.21485C12.484 1.21328 12.6473 1.38356 12.6395 1.58381C12.6332 1.77143 12.4714 1.92595 12.283 1.92122Z" fill="#959DEB"/>
<path id="Vector_8" d="M4.67326 5.94532C5.25429 5.94689 5.73167 6.42621 5.7301 7.00802C5.72853 7.58983 5.24958 8.06757 4.67013 8.06599C4.09067 8.06442 3.61171 7.58352 3.61329 7.00329C3.61329 6.42148 4.09224 5.94374 4.67326 5.94532ZM5.02502 7.00487C5.02502 6.82197 4.86013 6.65484 4.67797 6.65168C4.49267 6.64853 4.32936 6.80463 4.32308 6.99383C4.3168 7.19407 4.47854 7.35805 4.67797 7.3549C4.86642 7.35174 5.02502 7.19092 5.02502 7.00487Z" fill="#959DEB"/>
<path id="Vector_9" d="M11.1172 11.5905C11.1596 11.4738 11.2255 11.2373 11.3292 11.0198C11.4187 10.829 11.6228 10.7785 11.7924 10.8652C11.9667 10.9535 12.028 11.1333 11.951 11.3319C11.9196 11.4124 11.8741 11.4896 11.8505 11.5732C11.7956 11.7766 11.8301 11.9484 12.0343 12.0604C12.1583 12.1282 12.2777 12.2086 12.4002 12.2811C12.6624 12.4372 12.8194 12.4136 13.0204 12.1802C13.0613 12.1329 13.0927 12.0762 13.1366 12.0304C13.2748 11.8822 13.4397 11.8586 13.6062 11.9705C13.7679 12.0793 13.8025 12.2512 13.713 12.412C13.4272 12.926 12.7974 13.3281 12.1269 12.9386C11.9416 12.8314 11.7579 12.721 11.5804 12.6028C11.2664 12.3946 11.1172 12.0951 11.1172 11.5905Z" fill="#959DEB"/>
</g>
</svg>
