<svg width="25" height="25" viewBox="0 0 25 25" fill="none" xmlns="http://www.w3.org/2000/svg">
<g id="Property 1=Social Activado">
<path id="Vector" d="M24.9122 16.7762C24.9122 17.0774 24.9122 17.3801 24.9122 17.6813C24.8981 17.7349 24.8777 17.7869 24.8682 17.8405C24.54 19.7137 23.4722 20.9435 21.6585 21.4969C21.2847 21.6104 20.8843 21.6388 20.4666 21.7113C20.4666 21.9526 20.4729 22.2127 20.465 22.4729C20.432 23.8099 19.4992 24.7402 18.166 24.7418C14.6328 24.7481 11.1011 24.7481 7.56781 24.7418C6.22831 24.7402 5.28454 23.78 5.27826 22.4398C5.27669 22.1875 5.27826 21.9352 5.27826 21.6735C5.20131 21.6688 5.14792 21.664 5.09453 21.664C2.99027 21.6972 1.1781 20.286 0.691297 18.2378C0.647327 18.0534 0.614348 17.8673 0.57666 17.6813C0.57666 17.3801 0.57666 17.0774 0.57666 16.7762C0.590793 16.7321 0.612781 16.6879 0.619062 16.6422C0.889161 14.6871 2.38569 13.1545 4.32506 12.8628C4.63442 12.8155 4.95005 12.8124 5.26726 12.7887C5.26726 12.5443 5.26726 12.3078 5.26726 12.0619C5.03014 12.0382 4.80087 12.0303 4.57631 11.9909C2.06063 11.5542 0.474589 9.29946 0.911143 6.78303C1.01322 6.19807 1.23778 5.65726 1.57069 5.16532C1.69317 4.984 1.9036 4.94143 2.06534 5.04865C2.22395 5.15429 2.26478 5.34191 2.16741 5.53112C2.14229 5.58 2.11088 5.62572 2.08105 5.67302C0.595507 8.10431 2.29932 11.2593 5.14007 11.3382C6.83603 11.3855 8.35141 10.2691 8.82094 8.62936C9.28733 6.99746 8.58382 5.22839 7.10142 4.39589C5.8373 3.68479 4.56218 3.72263 3.30591 4.44319C3.05623 4.58667 2.85836 4.56302 2.7453 4.37539C2.63066 4.18776 2.69505 3.97648 2.93845 3.84719C3.23054 3.6911 3.52419 3.52239 3.83983 3.42936C4.29836 3.29534 4.77575 3.22597 5.2547 3.12663C5.28297 2.87278 5.28297 2.57636 5.35049 2.29571C5.5986 1.27242 6.48428 0.616506 7.60079 0.61493C10.0489 0.611776 12.4955 0.613353 14.9437 0.613353C16.0759 0.613353 17.2097 0.599162 18.3419 0.622813C19.4647 0.646464 20.3786 1.55623 20.454 2.68042C20.465 2.8444 20.4729 3.00838 20.4807 3.17709C20.5561 3.18339 20.6111 3.1897 20.6644 3.19128C22.6572 3.27327 24.3202 4.64658 24.7913 6.59855C24.8353 6.78145 24.8714 6.9675 24.9106 7.15198C24.9106 7.45313 24.9106 7.75586 24.9106 8.05701C24.8965 8.10904 24.8745 8.16108 24.8667 8.21468C24.5997 10.0626 23.2838 11.5053 21.4622 11.9278C21.1418 12.0019 20.8105 12.0272 20.4791 12.0761C20.4791 12.3126 20.4791 12.5475 20.4791 12.7935C20.5545 12.8013 20.6158 12.8108 20.677 12.8124C22.6792 12.9086 24.3453 14.2929 24.7991 16.2449C24.8415 16.4215 24.8745 16.5996 24.9122 16.7762ZM9.04393 2.72772C8.74086 2.72772 8.45506 2.72772 8.17082 2.72772C7.39822 2.72772 7.38722 2.74191 7.38408 3.50977C7.38251 3.66902 7.42805 3.76363 7.56938 3.85192C10.3677 5.59892 10.3614 9.63846 7.55839 11.3823C7.42334 11.4659 7.38251 11.5557 7.38565 11.7055C7.39351 12.229 7.39508 12.754 7.38565 13.2775C7.38251 13.4478 7.44218 13.544 7.5788 13.6465C8.73614 14.5105 9.37527 15.6678 9.40825 17.1152C9.44437 18.6667 8.8021 19.9092 7.55839 20.8347C7.43747 20.9246 7.38094 21.0113 7.38565 21.1658C7.39665 21.4985 7.38722 21.8328 7.39037 22.1654C7.39351 22.5029 7.51599 22.6274 7.85047 22.629C8.3891 22.6321 8.92773 22.629 9.46635 22.629C12.2631 22.629 15.0583 22.629 17.8551 22.629C18.2398 22.629 18.3529 22.5155 18.3545 22.1355C18.356 21.858 18.3466 21.5789 18.3576 21.3014C18.3639 21.1532 18.3058 21.0775 18.1849 21.0018C17.3212 20.4657 16.704 19.7215 16.3507 18.7645C16.0335 17.9067 15.9895 17.0317 16.211 16.144C16.2549 15.9705 16.3633 15.8397 16.5392 15.8665C16.6601 15.8854 16.8014 15.9753 16.8674 16.0762C16.9208 16.1566 16.8752 16.3032 16.8705 16.4199C16.8548 16.8771 16.7653 17.3454 16.836 17.7885C17.0872 19.3447 17.998 20.3885 19.5071 20.8079C21.0398 21.2336 22.3793 20.7937 23.3764 19.5528C24.361 18.3277 24.4929 16.9418 23.7879 15.5354C22.5881 13.1466 19.3563 12.8029 17.6321 14.8558C17.4138 15.1144 17.2364 15.1648 17.0511 15.0182C16.8658 14.8716 16.8595 14.6351 17.0982 14.4017C17.4421 14.0659 17.8127 13.7553 18.188 13.4541C18.2995 13.3658 18.356 13.2949 18.3529 13.1498C18.345 12.6657 18.3435 12.1817 18.3529 11.6976C18.356 11.5447 18.3105 11.4596 18.1786 11.376C15.363 9.61638 15.3724 5.58788 18.1912 3.83142C18.243 3.79831 18.3325 3.75574 18.3325 3.7179C18.3293 3.44355 18.3246 3.16763 18.2838 2.89801C18.2728 2.83179 18.1299 2.74034 18.0451 2.73718C17.5976 2.72142 17.1484 2.7293 16.704 2.7293C16.5439 3.43094 16.2455 3.73209 15.6739 3.73367C13.8052 3.73997 11.9349 3.7384 10.0662 3.73367C9.59355 3.73209 9.22766 3.45301 9.10361 3.0273C9.07848 2.94531 9.06749 2.85071 9.04393 2.72772ZM24.2024 7.60607C24.1993 5.54846 22.53 3.88503 20.4776 3.89449C18.4204 3.90395 16.7747 5.56738 16.7794 7.63288C16.7841 9.67314 18.4534 11.3397 20.4917 11.3382C22.541 11.3382 24.2056 9.66211 24.2024 7.60607ZM4.98618 13.5124C2.9306 13.5219 1.28017 15.1853 1.28488 17.2477C1.2896 19.299 2.96515 20.9687 5.01287 20.9608C7.09671 20.9529 8.7173 19.3053 8.70631 17.2067C8.69532 15.1648 7.02291 13.5046 4.98618 13.5124ZM19.7442 3.237C19.9075 2.05762 19.0972 1.30395 18.0875 1.31026C14.5966 1.33391 11.1058 1.31814 7.61335 1.31972C6.51568 1.31972 5.82159 2.15065 6.00846 3.24331C6.2236 3.29534 6.44345 3.34737 6.68685 3.40571C6.68685 3.27642 6.68371 3.18182 6.68685 3.08721C6.71041 2.48964 7.09828 2.06235 7.69344 2.02924C8.14256 2.00401 8.59638 2.00874 9.04707 2.02766C9.45379 2.04501 9.70033 2.29255 9.76001 2.69146C9.80084 2.96423 9.87778 3.04149 10.1416 3.04307C11.9616 3.04464 13.7832 3.04464 15.6048 3.04464C15.8278 3.04464 15.955 2.95162 15.9801 2.71196C16.0225 2.29571 16.3005 2.03712 16.7213 2.02451C17.1485 2.0119 17.5772 2.00874 18.0043 2.02609C18.6371 2.05289 19.0517 2.4991 19.0611 3.13925C19.0627 3.22439 19.0611 3.30953 19.0611 3.41202C19.3077 3.34737 19.5291 3.29061 19.7442 3.237ZM19.0596 21.4386C19.0596 21.6893 19.0596 21.9116 19.0596 22.1323C19.058 22.9096 18.6324 23.3369 17.8504 23.3369C14.5323 23.3385 11.2126 23.3385 7.89444 23.3369C7.1077 23.3369 6.68999 22.9191 6.68685 22.1339C6.68528 21.8769 6.68685 21.6183 6.68685 21.3392C6.43246 21.4212 6.21732 21.489 5.99904 21.5584C5.99904 21.962 5.96293 22.3625 6.0069 22.752C6.09327 23.5151 6.7638 24.0354 7.61178 24.0354C11.1121 24.037 14.6139 24.0354 18.1142 24.0354C18.1927 24.0354 18.2728 24.0338 18.3513 24.0275C18.9999 23.9771 19.5636 23.5435 19.694 22.9033C19.7803 22.4839 19.7599 22.0425 19.7866 21.6183C19.5212 21.5537 19.3077 21.5016 19.0596 21.4386ZM5.99433 11.9893C5.99433 12.2999 5.99433 12.5979 5.99433 12.9086C6.21889 12.9779 6.43874 13.0457 6.66173 13.1151C6.66173 12.6657 6.66173 12.2463 6.66173 11.8206C6.43089 11.8805 6.22517 11.931 5.99433 11.9893ZM19.7489 12.8565C19.7489 12.5522 19.7489 12.2716 19.7489 11.9909C19.5165 11.9326 19.2982 11.879 19.08 11.8238C19.08 12.2321 19.08 12.62 19.08 13.0221C19.3139 12.9653 19.5259 12.9117 19.7489 12.8565Z" fill="#273BE2"/>
<path id="Vector_2" d="M5.2513 5.14319C5.70199 5.14319 6.15425 5.14003 6.60494 5.14319C7.27547 5.14949 7.70888 5.57678 7.71202 6.24216C7.71674 7.15507 7.71674 8.06799 7.71202 8.97933C7.70888 9.6242 7.29589 10.0736 6.65833 10.0862C5.71612 10.1051 4.77392 10.1051 3.83172 10.0862C3.20672 10.0736 2.78587 9.62736 2.77802 8.99667C2.76703 8.07587 2.76703 7.15507 2.77802 6.23585C2.78587 5.57205 3.22871 5.14792 3.8961 5.14319C4.34836 5.14003 4.79905 5.14319 5.2513 5.14319ZM5.28114 5.85113C4.83045 5.85113 4.37976 5.84955 3.9275 5.85113C3.60401 5.85271 3.48153 5.97411 3.48153 6.29576C3.47839 7.17557 3.47839 8.05695 3.48153 8.93676C3.4831 9.25525 3.61187 9.38297 3.93222 9.38454C4.81004 9.3877 5.68943 9.3877 6.56725 9.38454C6.87974 9.38297 7.00694 9.26314 7.00851 8.95725C7.01322 8.06168 7.01322 7.16453 7.00851 6.26896C7.00694 5.96781 6.88917 5.85428 6.58766 5.85271C6.15111 5.84798 5.71612 5.85113 5.28114 5.85113Z" fill="#273BE2"/>
<path id="Vector_3" d="M13.1344 15.8776C12.211 15.8792 11.6002 15.6915 11.0537 15.3052C10.9344 15.2217 10.8354 15.2122 10.7082 15.2642C10.5245 15.3383 10.3376 15.3998 10.1492 15.4613C9.94347 15.5291 9.7566 15.4881 9.60113 15.3368C9.44567 15.1854 9.4017 14.9994 9.46138 14.7912C9.48493 14.7077 9.51633 14.6257 9.54617 14.5437C9.70477 14.0943 9.81627 13.6718 9.72676 13.1546C9.37344 11.0844 11.1542 9.2412 13.2333 9.49978C14.5414 9.66218 15.4569 10.3969 15.8841 11.6488C16.3096 12.896 16.0113 14.0139 15.0957 14.9521C14.4959 15.5717 13.706 15.8807 13.1344 15.8776ZM10.2277 14.6257C10.2513 14.6351 10.2764 14.6446 10.2999 14.6541C10.3816 14.6288 10.4664 14.6099 10.5449 14.5752C10.859 14.4333 11.1338 14.4917 11.4102 14.6919C12.2613 15.3037 13.3354 15.3305 14.1975 14.7786C15.0691 14.2189 15.4978 13.2208 15.3093 12.1865C15.0753 10.9109 13.8175 10.0201 12.511 10.2077C11.2468 10.389 10.2387 11.6031 10.3957 12.833C10.4758 13.451 10.6297 14.0502 10.2277 14.6257Z" fill="#273BE2"/>
<path id="Vector_4" d="M22.6635 17.2823C22.5332 17.4511 22.4594 17.6261 22.3291 17.7065C21.5235 18.1921 20.7069 18.662 19.8887 19.1239C19.5338 19.3242 19.1523 19.1098 19.1491 18.7045C19.1381 17.7538 19.1381 16.8014 19.1491 15.8491C19.1538 15.4565 19.5323 15.2358 19.873 15.4281C20.7006 15.8933 21.5219 16.3678 22.3338 16.8582C22.4641 16.937 22.5363 17.1136 22.6635 17.2823ZM21.6711 17.2792C21.0445 16.9181 20.4635 16.5823 19.8573 16.2323C19.8573 16.9481 19.8573 17.6166 19.8573 18.3277C20.4713 17.9745 21.0524 17.6371 21.6711 17.2792Z" fill="#273BE2"/>
<path id="Vector_5" d="M19.8258 7.86162C19.6421 7.86162 19.4851 7.86477 19.3296 7.86162C19.0658 7.85531 18.915 7.72444 18.9119 7.50686C18.9103 7.28769 19.0595 7.15683 19.3217 7.1521C19.4725 7.14894 19.6217 7.14737 19.7724 7.14579C19.7787 7.14579 19.7866 7.13948 19.8242 7.12056C19.8242 6.83833 19.8242 6.54033 19.8242 6.24233C19.8258 5.49024 20.253 5.0598 20.9989 5.05822C21.2281 5.05822 21.4574 5.05349 21.6867 5.0598C21.9269 5.06611 22.073 5.20801 22.0683 5.42087C22.0651 5.62111 21.9238 5.75986 21.6945 5.76774C21.4496 5.77563 21.2046 5.76774 20.9596 5.7709C20.6628 5.77405 20.5388 5.89388 20.534 6.18557C20.5309 6.50091 20.5325 6.81468 20.5325 7.15525C20.7288 7.15525 20.8999 7.15052 21.0727 7.15683C21.3004 7.16471 21.4417 7.30031 21.4448 7.50213C21.448 7.70395 21.3098 7.84743 21.0837 7.86162C20.9109 7.87265 20.7382 7.86319 20.534 7.86319C20.534 7.97356 20.534 8.06501 20.534 8.15804C20.534 8.77611 20.5356 9.39576 20.534 10.0138C20.5325 10.2976 20.4053 10.4537 20.1823 10.4553C19.9577 10.4569 19.8274 10.3008 19.8274 10.0186C19.8242 9.30904 19.8258 8.60425 19.8258 7.86162Z" fill="#273BE2"/>
<path id="Vector_6" d="M3.1503 18.1384C2.3981 17.4683 2.25049 16.6611 2.47662 15.7545C2.58654 15.313 3.0074 15.1963 3.32303 15.5227C3.60726 15.8159 3.93389 16.0193 4.3516 16.0903C4.37516 16.0225 4.39714 15.9579 4.41913 15.8916C4.68137 15.0765 5.62358 14.7454 6.32081 15.2389C6.47785 15.3492 6.61132 15.3492 6.7605 15.283C7.00077 15.1758 7.22375 15.1837 7.42319 15.3619C7.62262 15.5416 7.6556 15.7702 7.56923 16.0146C7.49856 16.2149 7.44517 16.4309 7.32897 16.6043C7.15466 16.8645 7.05259 17.1451 6.95366 17.4384C6.56264 18.6099 5.5749 19.3557 4.32648 19.4408C3.89935 19.4692 3.47221 19.4723 3.06392 19.3068C2.83151 19.2122 2.65564 19.0671 2.59125 18.8133C2.5096 18.5011 2.63051 18.2898 2.94301 18.1999C3.00268 18.1857 3.06236 18.1652 3.1503 18.1384ZM6.80133 16.0966C6.52653 16.0288 6.25015 16.013 6.03187 15.8901C5.8183 15.7702 5.633 15.6646 5.39588 15.7655C5.15405 15.868 5.07396 16.0714 5.06454 16.3205C5.04884 16.7494 4.95461 16.8361 4.53533 16.8219C4.44111 16.8187 4.34061 16.8203 4.25424 16.7904C3.8648 16.6563 3.47849 16.5113 3.07963 16.3646C3.09376 16.5018 3.09533 16.6753 3.13145 16.8424C3.23666 17.3138 3.56486 17.5929 3.96687 17.8215C4.08778 17.8909 4.21027 18.0297 4.24639 18.1621C4.29664 18.3434 4.14275 18.4585 3.98886 18.5437C3.89778 18.5941 3.80826 18.6509 3.69677 18.7187C4.91849 18.8858 5.98005 18.2457 6.30982 17.1451C6.4009 16.8408 6.46842 16.5365 6.69769 16.2953C6.75893 16.2306 6.78406 16.1313 6.80133 16.0966Z" fill="#273BE2"/>
<path id="Vector_7" d="M12.8611 2.53066C12.6742 2.52593 12.5141 2.36037 12.5156 2.1759C12.5172 1.993 12.6821 1.82744 12.8658 1.82429C13.0621 1.82271 13.2254 1.993 13.2176 2.19324C13.2113 2.38087 13.0496 2.53539 12.8611 2.53066Z" fill="#273BE2"/>
<path id="Vector_8" d="M5.24992 6.55451C5.83095 6.55608 6.30833 7.03541 6.30676 7.61721C6.30519 8.19902 5.82624 8.67676 5.24679 8.67519C4.66733 8.67361 4.18837 8.19271 4.18995 7.61248C4.18995 7.03068 4.6689 6.55293 5.24992 6.55451ZM5.60168 7.61406C5.60168 7.43116 5.43679 7.26403 5.25464 7.26088C5.06934 7.25772 4.90602 7.41382 4.89974 7.60302C4.89346 7.80326 5.0552 7.96724 5.25464 7.96409C5.44308 7.96094 5.60168 7.80011 5.60168 7.61406Z" fill="#273BE2"/>
<path id="Vector_9" d="M11.6931 12.2007C11.7355 12.084 11.8015 11.8475 11.9051 11.6299C11.9946 11.4391 12.1988 11.3887 12.3684 11.4754C12.5427 11.5637 12.6039 11.7434 12.527 11.9421C12.4956 12.0225 12.45 12.0998 12.4265 12.1833C12.3715 12.3867 12.406 12.5586 12.6102 12.6706C12.7342 12.7384 12.8536 12.8188 12.9761 12.8913C13.2383 13.0474 13.3954 13.0237 13.5964 12.7904C13.6372 12.7431 13.6686 12.6863 13.7126 12.6406C13.8508 12.4924 14.0156 12.4687 14.1821 12.5807C14.3438 12.6895 14.3784 12.8613 14.2889 13.0222C14.0031 13.5362 13.3734 13.9382 12.7028 13.5488C12.5175 13.4416 12.3338 13.3312 12.1564 13.2129C11.8423 13.0048 11.6931 12.7052 11.6931 12.2007Z" fill="#273BE2"/>
</g>
</svg>
