<svg width="20" height="25" viewBox="0 0 20 25" fill="none" xmlns="http://www.w3.org/2000/svg">
<g id="Frame" clip-path="url(#clip0_90_604)">
<g id="Group">
<g id="Group_2">
<g id="Group_3">
<path id="Vector" d="M9.70304 24.0459C7.29705 24.0459 4.89349 24.0459 2.4875 24.0445C1.00167 24.0445 0.00261264 22.9508 0.00139872 21.3235C0.000184801 17.04 0.000184801 12.7552 0.00139872 8.47034C0.00139872 6.84168 1.00895 5.74796 2.50571 5.74664C3.68079 5.74664 4.85586 5.74664 6.03215 5.74664H6.99843C6.50436 5.22627 6.0103 4.70457 5.51745 4.18419L4.80609 3.43342C4.50383 3.11431 4.40064 2.70913 4.51475 2.29204C4.63007 1.87229 4.91656 1.59953 5.32201 1.52538C5.65583 1.46447 5.9581 1.58364 6.24823 1.88951C7.18294 2.87862 8.12009 3.86508 9.05724 4.85154L9.79651 5.63144L10.9849 4.39075C12.2365 3.08253 13.4893 1.77563 14.7432 0.470059C14.8549 0.353538 14.9751 0.264822 15.0904 0.178755C15.1365 0.144328 15.1827 0.109901 15.2276 0.0741502L15.3174 0H15.8212L15.8867 0.0317787C16.3359 0.248933 16.5738 0.589229 16.5957 1.04605C16.6175 1.50419 16.3857 1.80079 16.2096 1.98352C15.4218 2.80447 14.6352 3.62674 13.8486 4.44901L12.6067 5.74664H13.499C14.6364 5.74664 15.7751 5.74664 16.9125 5.74664C18.4081 5.74796 19.4132 6.843 19.4144 8.47299C19.4156 12.7578 19.4168 17.0426 19.4144 21.3261C19.4132 22.9508 18.4141 24.0432 16.9259 24.0432C14.5174 24.0459 12.1102 24.0459 9.70304 24.0459ZM4.54388 6.48549C3.86409 6.48549 3.18551 6.48549 2.50571 6.48549C1.3792 6.48549 0.678766 7.24686 0.677552 8.47034C0.676338 12.7552 0.676338 17.0387 0.677552 21.3235C0.677552 22.5271 1.38769 23.3057 2.48629 23.3057C7.29948 23.3083 12.1115 23.3083 16.9234 23.3057C18.0232 23.3057 18.7346 22.5284 18.7346 21.3261C18.737 17.0413 18.7358 12.7578 18.7346 8.47299C18.7346 7.24686 18.0354 6.48549 16.9101 6.48549C15.7726 6.48549 14.6352 6.48549 13.4965 6.48549H11.6004L11.3855 5.92937L11.587 5.75591C11.6101 5.73605 11.6332 5.71751 11.6562 5.69765C11.6951 5.66587 11.7303 5.63674 11.757 5.60893L13.3776 3.9154C14.1642 3.09312 14.9508 2.26953 15.7399 1.44858C15.894 1.28836 15.9219 1.18905 15.9171 1.08312C15.911 0.948063 15.8673 0.846107 15.6719 0.738854H15.5359C15.5153 0.754743 15.4934 0.770633 15.4716 0.786522C15.3733 0.859348 15.2822 0.928202 15.2094 1.00368C13.9554 2.30793 12.7026 3.61615 11.4511 4.92304L10.1995 6.22994C10.1595 6.27099 10.1182 6.31071 10.0733 6.35308L9.77952 6.63512L9.48089 6.32528C9.43841 6.28158 9.39956 6.24186 9.36071 6.20081L8.58381 5.38251C7.64666 4.39605 6.70952 3.40826 5.7748 2.41915C5.62184 2.25761 5.52716 2.2351 5.43247 2.25231C5.28073 2.28012 5.20304 2.35294 5.16177 2.50257C5.13021 2.61512 5.12292 2.74091 5.27466 2.90113L5.98723 3.6519C6.61119 4.30998 7.23393 4.96674 7.85788 5.62482C7.89916 5.66852 7.938 5.71354 7.98656 5.7718L8.59959 6.48417H6.03336C5.53687 6.48549 5.04038 6.48549 4.54388 6.48549ZM11.1464 22.5708H2.50207C1.7373 22.5708 1.35006 22.1444 1.35006 21.3049C1.35006 17.0294 1.35006 12.7525 1.35006 8.47696C1.35006 7.64012 1.73973 7.2164 2.50814 7.2164C7.30555 7.2164 12.103 7.2164 16.9004 7.2164C17.6833 7.2164 18.0645 7.63482 18.0645 8.49682V21.2996C18.0645 22.155 17.6821 22.5708 16.8943 22.5708H11.1464ZM9.71032 21.8319H16.8943C17.3082 21.8319 17.3871 21.7472 17.3871 21.2996V8.49682C17.3871 8.04662 17.3058 7.95526 16.9004 7.95526C12.103 7.95526 7.30676 7.95526 2.50814 7.95526C2.1124 7.95526 2.02743 8.04795 2.02743 8.47696C2.02743 12.7525 2.02743 17.0294 2.02743 21.3049C2.02743 21.7379 2.11119 21.8319 2.50207 21.8319H9.71032Z" fill="#213CE7"/>
</g>
</g>
<g id="Group_4">
<path id="Vector_2" d="M7.91319 17.3697C7.84036 17.3697 7.76874 17.3498 7.7044 17.3088C7.57451 17.2267 7.49561 17.0771 7.49561 16.9129V12.395C7.49561 12.2321 7.57572 12.0812 7.7044 11.9991C7.83429 11.917 7.99331 11.917 8.1232 11.9991L11.7103 14.258C11.8402 14.3401 11.9191 14.4897 11.9191 14.6539C11.9191 14.8168 11.839 14.9677 11.7103 15.0498L8.1232 17.3101C8.05765 17.3498 7.98603 17.3697 7.91319 17.3697ZM8.332 13.1855V16.1224L10.6639 14.6526L8.332 13.1855Z" fill="#213CE7"/>
</g>
</g>
</g>
<defs>
<clipPath id="clip0_90_604">
<rect width="19.4154" height="24.0459" fill="white"/>
</clipPath>
</defs>
</svg>
