<svg width="20" height="25" viewBox="0 0 20 25" fill="none" xmlns="http://www.w3.org/2000/svg">
<g id="Frame" clip-path="url(#clip0_3204_12095)">
<g id="Group">
<g id="Group_2">
<g id="Group_3">
<path id="Vector" d="M9.70255 24.0459C7.29656 24.0459 4.893 24.0459 2.48702 24.0445C1.00118 24.0445 0.00212436 22.9508 0.000910439 21.3235C-0.00030348 17.04 -0.00030348 12.7552 0.000910439 8.47034C0.000910439 6.84168 1.00846 5.74796 2.50523 5.74664C3.6803 5.74664 4.85537 5.74664 6.03166 5.74664H6.99794C6.50388 5.22627 6.00981 4.70457 5.51696 4.18419L4.8056 3.43342C4.50334 3.11431 4.40015 2.70913 4.51426 2.29204C4.62958 1.87229 4.91607 1.59953 5.32152 1.52538C5.65535 1.46447 5.95761 1.58364 6.24774 1.88951C7.18246 2.87862 8.1196 3.86508 9.05675 4.85154L9.79602 5.63144L10.9845 4.39075C12.236 3.08253 13.4888 1.77563 14.7427 0.470059C14.8544 0.353538 14.9746 0.264822 15.0899 0.178755C15.1361 0.144328 15.1822 0.109901 15.2271 0.0741502L15.3169 0H15.8207L15.8863 0.0317787C16.3354 0.248933 16.5733 0.589229 16.5952 1.04605C16.617 1.50419 16.3852 1.80079 16.2092 1.98352C15.4213 2.80447 14.6347 3.62674 13.8481 4.44901L12.6062 5.74664H13.4985C14.6359 5.74664 15.7746 5.74664 16.912 5.74664C18.4076 5.74796 19.4127 6.843 19.4139 8.47299C19.4151 12.7578 19.4163 17.0426 19.4139 21.3261C19.4127 22.9508 18.4136 24.0432 16.9254 24.0432C14.517 24.0459 12.1098 24.0459 9.70255 24.0459ZM4.5434 6.48549C3.8636 6.48549 3.18502 6.48549 2.50523 6.48549C1.37871 6.48549 0.678277 7.24686 0.677063 8.47034C0.675849 12.7552 0.675849 17.0387 0.677063 21.3235C0.677063 22.5271 1.38721 23.3057 2.4858 23.3057C7.29899 23.3083 12.111 23.3083 16.9229 23.3057C18.0228 23.3057 18.7341 22.5284 18.7341 21.3261C18.7365 17.0413 18.7353 12.7578 18.7341 8.47299C18.7341 7.24686 18.0349 6.48549 16.9096 6.48549C15.7721 6.48549 14.6347 6.48549 13.496 6.48549H11.5999L11.385 5.92937L11.5866 5.75591C11.6096 5.73605 11.6327 5.71751 11.6557 5.69765C11.6946 5.66587 11.7298 5.63674 11.7565 5.60893L13.3771 3.9154C14.1637 3.09312 14.9503 2.26953 15.7394 1.44858C15.8935 1.28836 15.9215 1.18905 15.9166 1.08312C15.9105 0.948063 15.8668 0.846107 15.6714 0.738854H15.5354C15.5148 0.754743 15.4929 0.770633 15.4711 0.786522C15.3728 0.859348 15.2817 0.928202 15.2089 1.00368C13.9549 2.30793 12.7021 3.61615 11.4506 4.92304L10.199 6.22994C10.159 6.27099 10.1177 6.31071 10.0728 6.35308L9.77903 6.63512L9.4804 6.32528C9.43792 6.28158 9.39907 6.24186 9.36023 6.20081L8.58332 5.38251C7.64617 4.39605 6.70903 3.40826 5.77431 2.41915C5.62136 2.25761 5.52667 2.2351 5.43198 2.25231C5.28024 2.28012 5.20255 2.35294 5.16128 2.50257C5.12972 2.61512 5.12244 2.74091 5.27418 2.90113L5.98675 3.6519C6.6107 4.30998 7.23344 4.96674 7.8574 5.62482C7.89867 5.66852 7.93751 5.71354 7.98607 5.7718L8.5991 6.48417H6.03288C5.53638 6.48549 5.03989 6.48549 4.5434 6.48549ZM11.1459 22.5708H2.50158C1.73681 22.5708 1.34957 22.1444 1.34957 21.3049C1.34957 17.0294 1.34957 12.7525 1.34957 8.47696C1.34957 7.64012 1.73924 7.2164 2.50765 7.2164C7.30506 7.2164 12.1025 7.2164 16.8999 7.2164C17.6829 7.2164 18.064 7.63482 18.064 8.49682V21.2996C18.064 22.155 17.6816 22.5708 16.8938 22.5708H11.1459ZM9.70984 21.8319H16.8938C17.3078 21.8319 17.3867 21.7472 17.3867 21.2996V8.49682C17.3867 8.04662 17.3053 7.95526 16.8999 7.95526C12.1025 7.95526 7.30628 7.95526 2.50765 7.95526C2.11192 7.95526 2.02694 8.04795 2.02694 8.47696C2.02694 12.7525 2.02694 17.0294 2.02694 21.3049C2.02694 21.7379 2.1107 21.8319 2.50158 21.8319H9.70984Z" fill="#213CE7"/>
</g>
</g>
<g id="Group_4">
<path id="Vector_2" d="M7.91368 17.3697C7.84085 17.3697 7.76923 17.3498 7.70489 17.3088C7.575 17.2267 7.49609 17.077 7.49609 16.9128V12.395C7.49609 12.2321 7.57621 12.0812 7.70489 11.9991C7.83478 11.917 7.9938 11.917 8.12369 11.9991L11.7108 14.258C11.8407 14.3401 11.9196 14.4897 11.9196 14.6539C11.9196 14.8168 11.8395 14.9677 11.7108 15.0498L8.12369 17.3101C8.05814 17.3498 7.98652 17.3697 7.91368 17.3697ZM8.33248 13.1855V16.1224L10.6644 14.6526L8.33248 13.1855Z" fill="#213CE7"/>
</g>
</g>
</g>
<defs>
<clipPath id="clip0_3204_12095">
<rect width="19.4154" height="24.0459" fill="white"/>
</clipPath>
</defs>
</svg>
