<svg width="26" height="23" viewBox="0 0 26 23" fill="none" xmlns="http://www.w3.org/2000/svg">
<g id="Wizzard icons" opacity="0.95">
<path id="Vector" d="M0.00431693 1.72363C0.122198 1.22854 0.317705 0.781083 0.72885 0.451986C1.10118 0.153201 1.52527 0.0103032 1.99535 0.00452956C2.62357 -0.00268748 3.2518 0.000199302 3.88002 0.00308612C4.23222 0.00452952 4.46223 0.209493 4.45505 0.502505C4.4493 0.786856 4.22502 0.981716 3.88575 0.984603C3.27335 0.988933 2.66239 0.983159 2.04998 0.986046C1.38438 0.988933 0.983304 1.3902 0.983304 2.05994C0.980429 4.16587 0.980429 6.2718 0.983304 8.37629C0.984741 9.0316 1.38582 9.43864 2.03417 9.44008C4.50679 9.44297 6.97942 9.44297 9.45205 9.43575C9.53974 9.43575 9.66767 9.38667 9.70936 9.31884C10.3764 8.22906 11.2778 7.40199 12.4178 6.83329C12.4321 6.82607 12.4422 6.81308 12.4753 6.78566C12.1834 6.21984 11.8902 5.64969 11.5796 5.04635C11.502 5.20224 11.4345 5.32926 11.3726 5.45917C11.1915 5.83445 11.0075 6.20829 10.8336 6.58791C10.7344 6.80298 10.6035 6.9733 10.3505 6.97907C10.0846 6.98485 9.948 6.81164 9.83587 6.59368C9.44629 5.82868 9.05096 5.06656 8.65707 4.30444C8.63119 4.25392 8.601 4.2034 8.58087 4.14999C8.48168 3.89162 8.56506 3.63181 8.78358 3.51057C9.01646 3.3821 9.29103 3.44706 9.43766 3.7011C9.63461 4.0403 9.80425 4.39393 9.98538 4.74324C10.0903 4.94531 10.1953 5.14739 10.3175 5.38555C10.523 4.95975 10.7142 4.56425 10.904 4.16732C10.9644 4.04174 11.0233 3.91616 11.0823 3.79059C11.1757 3.5914 11.3166 3.45139 11.548 3.4485C11.778 3.44417 11.9247 3.57696 12.0253 3.77327C12.2567 4.22361 12.4896 4.67395 12.7225 5.12429C12.7599 5.19647 12.7987 5.26864 12.8533 5.37112C12.9008 5.28596 12.9396 5.221 12.9712 5.15461C13.194 4.69127 13.4126 4.22361 13.6397 3.76172C13.7461 3.54521 13.92 3.41386 14.1716 3.4586C14.4045 3.50046 14.5597 3.65058 14.5712 3.89018C14.577 4.02009 14.5252 4.16299 14.4692 4.28568C14.1788 4.90778 13.8783 5.52556 13.5822 6.14478C13.5434 6.22561 13.5089 6.30644 13.4528 6.43058C14.3283 6.20541 15.1808 6.13468 16.0908 6.26314C15.9642 6.01343 15.8593 5.80414 15.7529 5.59629C15.5215 5.14595 15.2886 4.6956 15.0543 4.24526C14.9436 4.03308 14.9191 3.8209 15.0773 3.62459C15.3058 3.34024 15.7098 3.40087 15.9039 3.75883C16.1454 4.20484 16.3696 4.65952 16.6025 5.10986C16.6428 5.1878 16.6873 5.26286 16.752 5.37833C16.9907 4.88036 17.2149 4.42136 17.4335 3.95947C17.5513 3.7112 17.6563 3.44994 17.9898 3.44994C18.3089 3.44994 18.4196 3.69965 18.5404 3.93637C18.7805 4.40548 19.0234 4.87459 19.2894 5.38844C19.5366 4.87314 19.7594 4.40259 19.9866 3.93493C20.0369 3.83245 20.0872 3.72852 20.1562 3.63759C20.2971 3.45283 20.5213 3.40231 20.7255 3.49469C20.9325 3.58851 21.0489 3.81368 20.9972 4.04174C20.9799 4.12113 20.9454 4.19763 20.9109 4.2698C20.5415 5.04491 20.1677 5.81713 19.8026 6.59368C19.7019 6.80875 19.5697 6.97474 19.3152 6.98052C19.0608 6.98485 18.9213 6.82174 18.815 6.61245C18.5893 6.16788 18.3592 5.7262 18.1292 5.28307C18.0933 5.21234 18.053 5.14306 18.0013 5.04779C17.754 5.56453 17.5226 6.04952 17.294 6.5244C17.7008 6.73225 18.1034 6.91268 18.4786 7.13496C19.3641 7.66325 20.0728 8.37773 20.6047 9.26399C20.6881 9.40255 20.7787 9.4473 20.9354 9.44585C21.6211 9.43719 22.3068 9.44297 22.9911 9.44152C23.6926 9.44008 24.0894 9.04747 24.0894 8.35031C24.0908 6.2617 24.0908 4.17165 24.0894 2.08304C24.0894 1.38298 23.6941 0.98749 22.9954 0.98749C18.1565 0.986046 13.3177 0.98749 8.47881 0.98749C8.38968 0.98749 8.29911 0.99182 8.20998 0.98316C7.93685 0.954292 7.74565 0.756545 7.74133 0.503949C7.73702 0.244135 7.9354 0.0362845 8.22004 0.00885974C8.28473 0.00308611 8.35086 0.005973 8.41555 0.005973C13.263 0.005973 18.1091 0.01319 22.9566 0.000199373C24.042 -0.00268744 24.8801 0.684374 25.0382 1.66012C25.0425 1.68321 25.0583 1.70486 25.0698 1.72651C25.0698 4.05329 25.0698 6.38006 25.0698 8.70683C25.0569 8.74436 25.0382 8.78189 25.0296 8.82086C24.8959 9.46318 24.548 9.95682 23.95 10.2166C23.6524 10.3451 23.3088 10.4014 22.9825 10.4187C22.3916 10.4505 21.7979 10.4274 21.1941 10.4274C22.0121 13.2463 21.3436 15.6236 19.1873 17.5737C20.4437 18.8367 21.6872 20.0881 22.9322 21.3381C22.9494 21.3554 22.9681 21.3713 22.9882 21.3857C23.3936 21.7004 23.9773 21.4868 24.0765 20.983C24.1282 20.7189 24.0262 20.5052 23.8407 20.3205C23.3721 19.8528 22.9063 19.3823 22.4391 18.9146C22.2651 18.7414 22.1602 18.5465 22.268 18.2983C22.4146 17.9605 22.8042 17.9057 23.0975 18.19C23.4899 18.5711 23.8637 18.9723 24.2605 19.3491C24.6328 19.7042 24.9505 20.0867 25.0684 20.6048C25.0684 20.7694 25.0684 20.9325 25.0684 21.097C24.952 21.5142 24.778 21.8895 24.4244 22.1666C23.8421 22.6242 22.9796 22.6357 22.4046 22.1724C22.291 22.08 22.1832 21.979 22.0782 21.875C20.8894 20.6828 19.6991 19.4905 18.5159 18.2939C18.3923 18.1698 18.3075 18.1496 18.1465 18.2362C14.6388 20.1069 10.2628 18.2911 9.10127 14.4819C8.716 13.2189 8.71313 11.9502 9.10703 10.6857C9.12716 10.6237 9.14441 10.5602 9.16022 10.4967C9.16453 10.4822 9.15878 10.4649 9.1559 10.4288C9.06821 10.4288 8.98052 10.4288 8.89139 10.4288C6.71347 10.4288 4.53411 10.3999 2.35762 10.4404C1.19606 10.462 0.265951 9.96981 0 8.70827C0.00431272 6.37717 0.00431693 4.0504 0.00431693 1.72363ZM20.5659 12.5896C20.5674 9.61473 18.1379 7.17682 15.1765 7.18115C12.2208 7.18548 9.80857 9.60319 9.79563 12.5737C9.78269 15.5428 12.2064 17.9865 15.1721 17.9952C18.1335 18.0024 20.5645 15.5659 20.5659 12.5896Z" fill="#959DEB"/>
<path id="Vector_2" d="M6.42918 5.38569C6.69657 4.82853 6.94526 4.31323 7.19108 3.79794C7.2989 3.57132 7.46136 3.42265 7.72587 3.45441C8.05076 3.49338 8.24915 3.82248 8.10396 4.1357C7.70575 5.00463 7.29604 5.86778 6.86477 6.72084C6.67645 7.09324 6.2078 7.07159 6.00222 6.69486C5.75496 6.24451 5.52782 5.78118 5.29062 5.32362C5.25036 5.24568 5.20723 5.16917 5.14254 5.05082C5.07066 5.1966 5.01317 5.30919 4.95711 5.42321C4.75872 5.83603 4.56177 6.2474 4.36339 6.66021C4.27138 6.85219 4.12762 6.97632 3.90911 6.97776C3.69204 6.97921 3.54253 6.86229 3.44478 6.67176C3.02213 5.85046 2.59517 5.03205 2.17684 4.20931C2.02733 3.91485 2.10783 3.63772 2.35366 3.50637C2.60954 3.36925 2.88412 3.46595 3.04513 3.76763C3.28808 4.22086 3.51954 4.6813 3.75674 5.13742C3.79411 5.20815 3.83292 5.27743 3.88754 5.37703C4.14774 4.8343 4.39788 4.32334 4.63939 3.80804C4.72852 3.61751 4.85073 3.47317 5.0678 3.45008C5.31938 3.42265 5.48037 3.55833 5.59106 3.7734C5.86276 4.29591 6.13448 4.81698 6.42918 5.38569Z" fill="#959DEB"/>
<path id="Vector_3" d="M6.65933 0.501485C6.65501 0.756968 6.42068 0.98647 6.16767 0.983583C5.91178 0.979253 5.68465 0.745421 5.68753 0.489938C5.69184 0.233011 5.92473 0.0049528 6.17918 0.00783961C6.43363 0.0121698 6.66364 0.247445 6.65933 0.501485Z" fill="#959DEB"/>
<path id="Vector_4" d="M22.0343 17.3253C22.0329 17.588 21.8101 17.8059 21.5455 17.8045C21.2839 17.803 21.0597 17.5779 21.0625 17.3195C21.0654 17.064 21.2983 16.8345 21.5527 16.8359C21.8101 16.8374 22.0357 17.0683 22.0343 17.3253Z" fill="#959DEB"/>
<path id="Vector_5" d="M15.1878 8.26172C17.5612 8.26461 19.5019 10.2248 19.4904 12.6035C19.4789 14.9779 17.5396 16.9164 15.1777 16.9121C12.8043 16.9077 10.8621 14.9476 10.8751 12.5703C10.888 10.1944 12.8259 8.25884 15.1878 8.26172ZM18.5115 12.5948C18.5158 10.7559 17.0164 9.24613 15.1849 9.24468C13.3621 9.24324 11.8655 10.7372 11.854 12.5674C11.8425 14.4063 13.3376 15.9219 15.1691 15.9291C17.0006 15.9378 18.5071 14.4352 18.5115 12.5948Z" fill="#959DEB"/>
<path id="Vector_6" d="M17.3809 12.5384C17.3838 12.8228 17.2041 13.0408 16.9439 13.0711C16.6895 13.1014 16.4637 12.9166 16.412 12.6366C16.2467 11.7287 16.021 11.5006 15.1455 11.352C14.8652 11.3043 14.6754 11.0835 14.697 10.8309C14.7214 10.5595 14.9471 10.3719 15.2404 10.3791C16.3948 10.4051 17.3694 11.3895 17.3809 12.5384Z" fill="#959DEB"/>
</g>
</svg>
