<svg width="26" height="24" viewBox="0 0 26 24" fill="none" xmlns="http://www.w3.org/2000/svg">
<g id="Property 1=Web precionado">
<path id="Vector" d="M0.885176 2.33276C1.00306 1.83767 1.19856 1.39021 1.60971 1.06112C1.98204 0.762331 2.40612 0.619434 2.87621 0.61366C3.50443 0.606443 4.13266 0.60933 4.76088 0.612217C5.11308 0.61366 5.34309 0.818624 5.33591 1.11164C5.33015 1.39599 5.10588 1.59085 4.76661 1.59373C4.15421 1.59806 3.54325 1.59229 2.93084 1.59518C2.26524 1.59806 1.86416 1.99933 1.86416 2.66907C1.86129 4.775 1.86129 6.88093 1.86416 8.98542C1.8656 9.64073 2.26668 10.0478 2.91503 10.0492C5.38765 10.0521 7.86028 10.0521 10.3329 10.0449C10.4206 10.0449 10.5485 9.99581 10.5902 9.92797C11.2573 8.83819 12.1586 8.01112 13.2986 7.44242C13.313 7.4352 13.323 7.42221 13.3561 7.39479C13.0643 6.82897 12.771 6.25883 12.4605 5.65548C12.3829 5.81137 12.3153 5.93839 12.2535 6.0683C12.0724 6.44358 11.8884 6.81742 11.7144 7.19704C11.6152 7.41211 11.4844 7.58243 11.2314 7.5882C10.9654 7.59398 10.8289 7.42077 10.7167 7.20281C10.3271 6.43781 9.93182 5.67569 9.53793 4.91357C9.51205 4.86305 9.48186 4.81253 9.46173 4.75913C9.36254 4.50076 9.44592 4.24094 9.66443 4.1197C9.89732 3.99123 10.1719 4.05619 10.3185 4.31023C10.5155 4.64943 10.6851 5.00306 10.8662 5.35237C10.9712 5.55444 11.0761 5.75652 11.1983 5.99468C11.4039 5.56888 11.5951 5.17338 11.7849 4.77645C11.8452 4.65087 11.9042 4.52529 11.9631 4.39972C12.0566 4.20053 12.1974 4.06052 12.4289 4.05763C12.6589 4.0533 12.8055 4.18609 12.9062 4.3824C13.1376 4.83274 13.3705 5.28308 13.6034 5.73343C13.6408 5.8056 13.6796 5.87777 13.7342 5.98025C13.7816 5.89509 13.8205 5.83013 13.8521 5.76374C14.0749 5.3004 14.2934 4.83274 14.5206 4.37085C14.6269 4.15434 14.8009 4.02299 15.0525 4.06773C15.2853 4.10959 15.4406 4.25971 15.4521 4.49931C15.4579 4.62922 15.4061 4.77212 15.35 4.89481C15.0596 5.51691 14.7592 6.13469 14.4631 6.75391C14.4242 6.83474 14.3897 6.91558 14.3337 7.03971C15.2092 6.81454 16.0616 6.74381 16.9716 6.87227C16.8451 6.62256 16.7402 6.41327 16.6338 6.20542C16.4023 5.75508 16.1695 5.30473 15.9351 4.85439C15.8244 4.64221 15.8 4.43003 15.9581 4.23373C16.1867 3.94937 16.5907 4.01 16.7847 4.36796C17.0262 4.81398 17.2505 5.26865 17.4834 5.71899C17.5236 5.79694 17.5682 5.87199 17.6329 5.98747C17.8715 5.48949 18.0958 5.03049 18.3143 4.5686C18.4322 4.32033 18.5371 4.05907 18.8707 4.05907C19.1898 4.05907 19.3005 4.30878 19.4212 4.5455C19.6613 5.01461 19.9043 5.48372 20.1702 5.99757C20.4175 5.48227 20.6403 5.01172 20.8674 4.54406C20.9177 4.44158 20.9681 4.33765 21.0371 4.24672C21.178 4.06196 21.4022 4.01144 21.6063 4.10382C21.8134 4.19764 21.9298 4.42281 21.878 4.65087C21.8608 4.73026 21.8263 4.80676 21.7918 4.87893C21.4223 5.65404 21.0486 6.42626 20.6834 7.20281C20.5828 7.41788 20.4505 7.58387 20.1961 7.58965C19.9416 7.59398 19.8022 7.43087 19.6958 7.22158C19.4701 6.77701 19.2401 6.33533 19.0101 5.8922C18.9742 5.82147 18.9339 5.75219 18.8822 5.65692C18.6349 6.17366 18.4034 6.65865 18.1749 7.13353C18.5817 7.34138 18.9842 7.52181 19.3594 7.74409C20.245 8.27238 20.9537 8.98687 21.4856 9.87312C21.569 10.0117 21.6595 10.0564 21.8162 10.055C22.502 10.0463 23.1877 10.0521 23.872 10.0507C24.5735 10.0492 24.9703 9.65661 24.9703 8.95944C24.9717 6.87083 24.9717 4.78078 24.9703 2.69217C24.9703 1.99211 24.5749 1.59662 23.8763 1.59662C19.0374 1.59518 14.1985 1.59662 9.35967 1.59662C9.27054 1.59662 9.17997 1.60095 9.09084 1.59229C8.81771 1.56342 8.62651 1.36568 8.62219 1.11308C8.61788 0.853266 8.81626 0.645415 9.1009 0.617991C9.16559 0.612217 9.23172 0.615104 9.29641 0.615104C14.1439 0.615104 18.99 0.622321 23.8375 0.60933C24.9228 0.606443 25.7609 1.2935 25.9191 2.26925C25.9234 2.29234 25.9392 2.31399 25.9507 2.33565C25.9507 4.66242 25.9507 6.98919 25.9507 9.31596C25.9378 9.35349 25.9191 9.39102 25.9104 9.42999C25.7768 10.0723 25.4289 10.566 24.8308 10.8258C24.5333 10.9542 24.1897 11.0105 23.8633 11.0278C23.2725 11.0596 22.6788 11.0365 22.075 11.0365C22.893 13.8555 22.2245 16.2328 20.0681 18.1828C21.3246 19.4458 22.5681 20.6972 23.813 21.9472C23.8303 21.9645 23.849 21.9804 23.8691 21.9949C24.2745 22.3095 24.8581 22.0959 24.9573 21.5921C25.0091 21.328 24.907 21.1144 24.7216 20.9296C24.2529 20.462 23.7871 19.9914 23.3199 19.5237C23.146 19.3505 23.041 19.1557 23.1489 18.9074C23.2955 18.5696 23.6851 18.5148 23.9783 18.7991C24.3708 19.1802 24.7446 19.5815 25.1413 19.9582C25.5137 20.3133 25.8314 20.6958 25.9493 21.214C25.9493 21.3785 25.9493 21.5416 25.9493 21.7062C25.8328 22.1233 25.6589 22.4986 25.3052 22.7757C24.723 23.2333 23.8605 23.2448 23.2854 22.7815C23.1719 22.6891 23.064 22.5881 22.9591 22.4842C21.7702 21.2919 20.5799 20.0997 19.3968 18.9031C19.2732 18.7789 19.1884 18.7587 19.0273 18.8453C15.5197 20.716 11.1437 18.9002 9.98213 15.091C9.59686 13.8281 9.59399 12.5593 9.98789 11.2949C10.008 11.2328 10.0253 11.1693 10.0411 11.1058C10.0454 11.0914 10.0396 11.074 10.0368 11.0379C9.94907 11.0379 9.86138 11.0379 9.77225 11.0379C7.59433 11.0379 5.41497 11.0091 3.23848 11.0495C2.07692 11.0711 1.14681 10.5789 0.880859 9.3174C0.885172 6.9863 0.885176 4.65953 0.885176 2.33276ZM21.4468 13.1987C21.4482 10.2239 19.0187 7.78595 16.0573 7.79028C13.1017 7.79461 10.6894 10.2123 10.6765 13.1828C10.6636 16.1519 13.0873 18.5956 16.053 18.6043C19.0144 18.6115 21.4453 16.175 21.4468 13.1987Z" fill="#273BE2"/>
<path id="Vector_2" d="M7.31126 5.9961C7.57865 5.43894 7.82734 4.92365 8.07316 4.40835C8.18098 4.18174 8.34344 4.03307 8.60795 4.06482C8.93284 4.10379 9.13123 4.43289 8.98604 4.74611C8.58783 5.61504 8.17812 6.4782 7.74685 7.33125C7.55853 7.70365 7.08988 7.682 6.8843 7.30527C6.63704 6.85493 6.4099 6.39159 6.1727 5.93403C6.13244 5.85609 6.08931 5.77959 6.02462 5.66123C5.95274 5.80701 5.89525 5.9196 5.83919 6.03363C5.6408 6.44644 5.44385 6.85781 5.24547 7.27063C5.15346 7.4626 5.0097 7.58673 4.79119 7.58818C4.57412 7.58962 4.42461 7.4727 4.32686 7.28217C3.90421 6.46088 3.47725 5.64246 3.05892 4.81972C2.90941 4.52527 2.98991 4.24813 3.23574 4.11678C3.49162 3.97966 3.7662 4.07637 3.92721 4.37804C4.17016 4.83127 4.40162 5.29172 4.63882 5.74783C4.67619 5.81856 4.715 5.88784 4.76962 5.98744C5.02982 5.44472 5.27996 4.93375 5.52147 4.41845C5.6106 4.22792 5.73281 4.08358 5.94988 4.06049C6.20146 4.03306 6.36245 4.16875 6.47314 4.38381C6.74484 4.90633 7.01656 5.4274 7.31126 5.9961Z" fill="#273BE2"/>
<path id="Vector_3" d="M7.5397 1.10872C7.53539 1.36421 7.30106 1.59371 7.04804 1.59082C6.79215 1.58649 6.56502 1.35266 6.5679 1.09718C6.57221 0.84025 6.8051 0.612192 7.05955 0.615078C7.314 0.619409 7.54401 0.854684 7.5397 1.10872Z" fill="#273BE2"/>
<path id="Vector_4" d="M22.9161 17.9332C22.9147 18.1959 22.6919 18.4138 22.4274 18.4124C22.1657 18.4109 21.9415 18.1858 21.9444 17.9274C21.9472 17.6719 22.1801 17.4424 22.4346 17.4439C22.6919 17.4453 22.9176 17.6762 22.9161 17.9332Z" fill="#273BE2"/>
<path id="Vector_5" d="M16.0672 8.8714C18.4406 8.87429 20.3813 10.8344 20.3698 13.2132C20.3583 15.5876 18.419 17.5261 16.0571 17.5217C13.6837 17.5174 11.7415 15.5573 11.7545 13.18C11.7674 10.8041 13.7052 8.86852 16.0672 8.8714ZM19.3908 13.2045C19.3952 11.3656 17.8958 9.85581 16.0643 9.85436C14.2415 9.85292 12.7449 11.3468 12.7334 13.1771C12.7219 15.016 14.217 16.5316 16.0485 16.5388C17.88 16.5474 19.3865 15.0449 19.3908 13.2045Z" fill="#273BE2"/>
<path id="Vector_6" d="M18.2625 13.1482C18.2654 13.4326 18.0857 13.6506 17.8255 13.6809C17.571 13.7112 17.3453 13.5264 17.2936 13.2464C17.1283 12.3385 16.9026 12.1104 16.0271 11.9618C15.7468 11.9141 15.557 11.6933 15.5786 11.4407C15.603 11.1693 15.8287 10.9817 16.122 10.9889C17.2763 11.0149 18.251 11.9993 18.2625 13.1482Z" fill="#273BE2"/>
</g>
</svg>
